<svg width="225" height="259" viewBox="0 0 225 259" fill="none" xmlns="http://www.w3.org/2000/svg">
<path d="M115.213 209.035C167.189 209.035 209.324 166.9 209.324 114.924C209.324 62.9474 167.189 20.8125 115.213 20.8125C63.2365 20.8125 21.1016 62.9474 21.1016 114.924C21.1016 166.9 63.2365 209.035 115.213 209.035Z" fill="#FFCA00"/>
<path d="M112.906 113.897L115.213 23.1016L117.52 113.897H112.906Z" fill="#FFFEA6"/>
<path d="M117.52 115.945L115.213 206.74L112.906 115.945H117.52Z" fill="#FFFEA6"/>
<path d="M112.764 114.31L99.2656 24.4922L117.307 113.504L112.764 114.31Z" fill="#FFFEA6"/>
<path d="M117.669 115.531L131.159 205.341L113.117 116.329L117.669 115.531Z" fill="#FFFEA6"/>
<path d="M112.693 114.751L83.8125 28.6406L117.034 113.172L112.693 114.751Z" fill="#FFFEA6"/>
<path d="M117.731 115.094L146.62 201.204L113.398 116.673L117.731 115.094Z" fill="#FFFEA6"/>
<path d="M112.708 115.19L69.3125 35.4062L116.704 112.883L112.708 115.19Z" fill="#FFFEA6"/>
<path d="M117.731 114.656L161.134 194.44L113.734 116.963L117.731 114.656Z" fill="#FFFEA6"/>
<path d="M112.784 115.619L56.1875 44.5859L116.319 112.655L112.784 115.619Z" fill="#FFFEA6"/>
<path d="M117.636 114.227L174.225 185.26L114.094 117.191L117.636 114.227Z" fill="#FFFEA6"/>
<path d="M112.944 116.038L44.875 55.9062L115.908 112.495L112.944 116.038Z" fill="#FFFEA6"/>
<path d="M117.48 113.812L185.549 173.944L114.516 117.347L117.48 113.812Z" fill="#FFFEA6"/>
<path d="M113.172 116.407L35.6953 69.0078L115.479 112.411L113.172 116.407Z" fill="#FFFEA6"/>
<path d="M117.252 113.438L194.729 160.829L114.945 117.434L117.252 113.438Z" fill="#FFFEA6"/>
<path d="M113.461 116.737L28.9297 83.5156L115.04 112.404L113.461 116.737Z" fill="#FFFEA6"/>
<path d="M116.963 113.102L201.494 146.331L115.383 117.442L116.963 113.102Z" fill="#FFFEA6"/>
<path d="M113.809 117.018L24.7969 98.9766L114.607 112.467L113.809 117.018Z" fill="#FFFEA6"/>
<path d="M116.634 112.828L205.646 130.87L115.828 117.372L116.634 112.828Z" fill="#FFFEA6"/>
<path d="M114.186 117.231L23.3906 114.924L114.186 112.617V117.231Z" fill="#FFFEA6"/>
<path d="M116.234 112.617L207.03 114.924L116.234 117.231V112.617Z" fill="#FFFEA6"/>
<path d="M114.607 117.372L24.7969 130.87L113.809 112.828L114.607 117.372Z" fill="#FFFEA6"/>
<path d="M115.828 112.467L205.646 98.9766L116.634 117.018L115.828 112.467Z" fill="#FFFEA6"/>
<path d="M115.04 117.442L28.9297 146.331L113.461 113.102L115.04 117.442Z" fill="#FFFEA6"/>
<path d="M115.383 112.404L201.494 83.5156L116.963 116.737L115.383 112.404Z" fill="#FFFEA6"/>
<path d="M115.479 117.434L35.6953 160.829L113.172 113.438L115.479 117.434Z" fill="#FFFEA6"/>
<path d="M114.945 112.411L194.729 69.0078L117.252 116.407L114.945 112.411Z" fill="#FFFEA6"/>
<path d="M115.908 117.347L44.875 173.944L112.944 113.812L115.908 117.347Z" fill="#FFFEA6"/>
<path d="M114.516 112.495L185.549 55.9062L117.48 116.038L114.516 112.495Z" fill="#FFFEA6"/>
<path d="M116.319 117.191L56.1875 185.26L112.784 114.227L116.319 117.191Z" fill="#FFFEA6"/>
<path d="M114.094 112.655L174.225 44.5859L117.636 115.619L114.094 112.655Z" fill="#FFFEA6"/>
<path d="M116.704 116.963L69.3125 194.44L112.708 114.656L116.704 116.963Z" fill="#FFFEA6"/>
<path d="M113.734 112.883L161.134 35.4062L117.731 115.19L113.734 112.883Z" fill="#FFFEA6"/>
<path d="M117.034 116.673L83.8125 201.204L112.693 115.094L117.034 116.673Z" fill="#FFFEA6"/>
<path d="M113.398 113.172L146.62 28.6406L117.731 114.751L113.398 113.172Z" fill="#FFFEA6"/>
<path d="M117.307 116.329L99.2656 205.341L112.764 115.531L117.307 116.329Z" fill="#FFFEA6"/>
<path d="M113.117 113.504L131.159 24.4922L117.669 114.31L113.117 113.504Z" fill="#FFFEA6"/>
<path d="M58.9821 14.586C58.9821 14.586 57.6604 15.4384 55.3378 16.9321C54.7669 17.3153 54.1021 17.6985 53.4296 18.1912C52.757 18.6761 52.0375 19.2078 51.2633 19.7709C50.4891 20.334 49.6679 20.9283 48.8077 21.5618C47.9787 22.2422 47.1107 22.9617 46.1957 23.7046C45.7421 24.08 45.2807 24.4554 44.8036 24.8464C44.788 24.862 44.7645 24.8777 44.7489 24.8933C44.3735 25.2139 43.7714 25.7457 43.4038 26.0664C42.4732 26.9266 41.5112 27.8181 40.5259 28.7253C39.517 29.609 38.5864 30.6413 37.6089 31.6423C37.124 32.1507 36.6235 32.659 36.1308 33.1751C35.8805 33.4332 35.6303 33.6913 35.38 33.9572C35.1376 34.2231 34.903 34.5046 34.6684 34.7861C33.7221 35.8966 32.7524 37.0228 31.7748 38.1646C31.2743 38.7198 30.8364 39.3454 30.375 39.9398C29.4678 41.1363 28.545 42.3407 27.6222 43.5528L27.5987 43.5841C27.1686 44.2254 26.7385 44.8667 26.3083 45.5079C25.8782 46.1492 25.4481 46.7905 25.0101 47.4318C24.3063 48.4797 23.5634 49.5042 23.1411 50.7398C22.7579 51.3498 22.3903 51.9442 22.0071 52.5541C21.2563 53.3988 20.834 54.4389 20.3101 55.4086C19.9582 56.089 19.614 56.7694 19.2621 57.4419C18.918 58.1145 18.5739 58.787 18.2298 59.4596C17.9248 60.1478 17.6277 60.836 17.3227 61.5164C16.7361 62.8849 16.1027 64.2066 15.5787 65.5517C14.6012 68.2654 13.5376 70.8461 12.8494 73.3956C12.474 74.6625 12.083 75.8825 11.7467 77.0712C11.4573 78.2755 11.1836 79.4408 10.9177 80.5591C10.7848 81.1143 10.6518 81.6618 10.5267 82.1936C10.4641 82.4595 10.4016 82.7254 10.339 82.9834C10.2921 83.2493 10.2452 83.5074 10.2061 83.7655C10.0262 84.7978 9.85416 85.7753 9.69775 86.6903C9.54134 87.6053 9.38494 88.4655 9.25199 89.2554C9.16597 90.0531 9.09557 90.6396 9.02519 91.3044C9.00173 91.4842 8.98609 91.6641 8.96263 91.8362C8.75147 93.7522 7.00752 95.1364 5.09152 94.9096C3.08949 94.675 1.71309 92.7981 2.07283 90.8195C2.11193 90.6318 2.14321 90.4285 2.18232 90.2252C2.31526 89.5291 2.44822 88.8253 2.60463 87.9885C2.80796 87.1595 3.02692 86.2915 3.26936 85.3296C3.51179 84.3676 3.76204 83.3666 4.02794 82.2952C4.09832 82.0293 4.16088 81.7634 4.23126 81.4897C4.31729 81.216 4.40332 80.9501 4.48934 80.6686C4.66139 80.1133 4.84127 79.5503 5.02114 78.9637C5.3887 77.8063 5.76407 76.602 6.16291 75.3507C6.60868 74.1229 7.10919 72.8638 7.60188 71.5656C8.52469 68.9458 9.8307 66.3103 11.0585 63.5575C11.7076 62.1967 12.4662 60.8516 13.1778 59.4752C13.5376 58.787 13.9051 58.0988 14.2727 57.4028C14.6794 56.7303 15.086 56.0577 15.5005 55.3773C15.9072 54.7048 16.3217 54.0244 16.7361 53.344C17.1584 52.6715 17.5416 51.9676 18.0109 51.3185C18.918 50.0047 19.833 48.683 20.7402 47.3692C21.1781 46.6967 21.6865 46.0788 22.1792 45.4454C23.1567 44.1941 24.1264 42.9507 25.0962 41.7072L25.1196 41.6759C25.6436 41.0816 26.1676 40.4872 26.6837 39.8929C27.1999 39.3063 27.7238 38.7198 28.2322 38.1333C28.7561 37.5546 29.241 36.9524 29.7962 36.4206C30.8755 35.3257 31.9469 34.2465 32.9948 33.183C33.2607 32.9171 33.511 32.6512 33.7847 32.3931C34.0584 32.1428 34.3321 31.9004 34.6058 31.6501C35.1532 31.1575 35.6928 30.6726 36.2246 30.1955C37.296 29.2415 38.3127 28.2717 39.3997 27.4428C40.4633 26.5903 41.5034 25.7614 42.5044 24.9559L43.9434 23.8766C43.9434 23.8766 43.9903 23.8454 44.0138 23.8297C44.5221 23.47 45.0148 23.1181 45.4997 22.774C46.4694 22.0858 47.3922 21.4289 48.2759 20.8032C49.1909 20.2323 50.0668 19.6849 50.8879 19.1766C51.7013 18.6682 52.4677 18.1912 53.1793 17.7454C53.8832 17.2997 54.5714 16.9712 55.1735 16.6271C57.5901 15.3055 58.9743 14.5469 58.9743 14.5469L58.9821 14.586Z" fill="#26324A"/>
<mask id="mask0_2_1781" style="mask-type:luminance" maskUnits="userSpaceOnUse" x="21" y="0" width="189" height="210">
<path d="M187.27 54.3754C201.034 70.7436 209.324 91.8587 209.324 114.921C209.324 166.896 167.187 209.032 115.213 209.032C63.238 209.032 21.1016 166.896 21.1016 114.921C21.1016 84.8516 35.2018 58.0745 57.1616 40.8461L61.2673 32.8849L66.1629 24.5874L72.7946 21.9598L77.2444 17.5569L79.3559 10.4716L94.3868 3.34714L121.242 0L125.637 3.34714L141.216 1.90036L156.059 5.36481L160.681 10.4716L167.085 14.2097L174.319 21.9989L181.733 31.4459L183.978 46.4142L187.262 54.3832L187.27 54.3754Z" fill="white"/>
</mask>
<g mask="url(#mask0_2_1781)">
<path d="M152.447 131.528L155.216 140.983L157.929 149.781L157.21 161.339L154.496 172.014L152.447 175.885L150.883 189.767L148.85 194.912L145.644 195.413L146.973 186.177L134.468 193.09L130.769 192.871L126.476 177.442C126.476 177.442 124.912 172.46 125.021 172.186C125.131 171.913 125.741 164.608 125.96 164.28C126.179 163.951 128.556 159.963 128.783 159.634C129.01 159.306 132.216 153.55 132.216 153.55C132.216 153.55 137.416 145.753 137.69 144.87C137.964 143.986 142.5 136.189 142.727 135.798C142.953 135.407 144.83 132.646 144.83 132.646L146.879 128.501C146.879 128.501 148.099 125.639 149.867 127.266L152.463 131.543L152.447 131.528Z" fill="#C48257"/>
<path d="M146.063 157.078C146.063 157.078 147.666 173.79 138.312 184.637C138.312 184.637 145.343 167.12 146.063 157.078Z" fill="#601C07"/>
<path d="M142.383 211.633C142.383 211.633 143.22 204.509 143.29 204.087C143.361 203.664 147.067 203.5 147.067 203.5L149.03 205.095L149.664 210.757L150.571 222.167L149.101 238.551L149.03 250.876L150.571 270.341C150.571 270.341 153.511 277.833 155.615 279.303C155.615 279.303 163.318 282.455 167.448 282.877C167.448 282.877 172.836 285.818 173.399 289.533L171.999 293.106L168.918 294.545L166.47 296.133H162.13L159.533 294.647L152.041 295.593L148.194 296.282C148.194 296.282 140.397 295.531 140.021 293.294L137.409 292.887L135.094 291.613L134.469 289.924L138.027 282.009L139.357 274.58L137.19 259.721L137.996 247.185L139.599 231.075C139.599 231.075 139.888 220.111 140.021 219.829C140.154 219.548 142.383 211.633 142.383 211.633Z" fill="#FEDEC5"/>
<path d="M147.192 201.592C147.192 201.592 143.822 204.126 143.939 220.752C143.939 220.752 140.084 246.974 140.443 251.94C140.443 251.94 140.928 270.279 144.658 276.911C144.658 276.911 136.533 284.238 136.564 292.489C136.564 292.489 134.312 291.292 134.68 289.838L134.641 269.802L132.255 263.17L130.285 258.955L127.891 255.772L127.094 247.756L127.031 242.227L127.837 234.368L131.02 221.573L136.494 204.65C136.494 204.65 137.886 202.312 137.784 202.014C137.683 201.717 137.096 196.141 137.096 196.141C137.096 196.141 150.915 171.788 150.07 164.641C150.07 164.641 151.103 182.62 147.177 201.6L147.192 201.592Z" fill="#5F281B"/>
<path d="M127.211 238.743C127.211 238.743 124.912 253.344 128.407 259.319C128.407 259.319 134.296 268.359 134.077 281.849C134.062 282.804 134.077 283.765 134.108 284.727C134.148 285.924 133.976 287.989 132.724 290.014C132.724 290.014 140.717 298.1 148.897 297.178C148.897 297.178 159.118 296.388 162.684 297.365C163.568 297.608 164.483 297.725 165.39 297.615C166.759 297.451 168.511 296.912 169.566 295.348C169.566 295.348 175.541 295.348 175.26 292.04C175.26 292.04 176.237 285.893 167.502 282.287C167.361 282.233 167.22 282.17 167.079 282.115C157.89 278.534 156.053 282.944 151.548 269.712C151.548 269.712 149.53 251.702 149.53 246.462C149.53 246.462 150.5 234.012 151.571 227.92C152.049 225.214 152.228 222.477 152.095 219.732C151.806 213.765 150.805 204.404 147.419 199.235C147.419 199.235 155.044 189.584 153.667 175.069C153.667 175.069 165.343 158.873 155.505 137.242C155.505 137.242 152.752 124.894 148.068 126.364L147.333 127.607C147.333 127.607 150.117 127.13 151.368 132.565C151.626 133.699 151.939 134.818 152.354 135.905C153.769 139.612 156.858 148.793 156.608 157.802C156.577 158.873 156.42 159.945 156.162 160.993C155.38 164.136 153.441 171.558 151.571 175.437C151.571 175.437 150.727 191.226 145.847 200.627C145.847 200.627 150.844 215.931 148.983 228.702C148.983 228.702 147.958 239.549 147.716 246.173C147.716 246.173 147.661 268.821 150.258 273.802C150.414 274.099 150.547 274.397 150.672 274.709C151.188 276.008 152.932 279.449 157.382 281.576C159.165 282.428 161.128 282.819 163.107 282.882C165.554 282.952 170.09 283.679 171.388 287.926C171.388 287.926 171.905 289.474 172.014 290.859C172.108 292.063 170.833 292.861 169.785 292.266C168.518 291.547 166.563 289.873 163.803 286.057C163.803 286.057 166.321 289.748 166.884 292.65C167.197 294.261 165.844 295.746 164.217 295.543C162.825 295.371 161.238 294.495 160.909 291.539C160.909 291.539 159.525 285.932 157.593 285.752C157.593 285.752 158.266 287.355 158.657 289.185C159.243 291.977 157.101 294.698 154.246 294.55C153.261 294.503 152.424 294.12 152.228 293.041C152.228 293.041 151.626 288.583 149.82 288.161C149.82 288.161 150.164 289.912 150.031 291.727C149.874 293.909 147.927 295.488 145.753 295.238C143.579 294.988 140.967 294.057 141.436 290.992C141.436 290.992 143.243 285.572 144.51 283.82C144.51 283.82 139.872 288.403 138.527 290.906C138.222 291.476 137.651 291.883 137.002 291.891C136.118 291.899 135.172 291.242 135.774 288.043C135.774 288.043 136.799 268.461 134.085 265.505C134.085 265.505 132.396 250.02 136.071 240.917C136.071 240.917 132.153 249.293 131.856 255.44C131.856 255.44 130.081 243.842 131.434 237.367C131.434 237.367 127.336 246.587 129.142 256.949C129.142 256.949 126.249 245.445 127.18 238.728L127.211 238.743Z" fill="#0E030E"/>
<path d="M34.7975 159.323L24.2322 187.164L22.2849 202.774L18.7188 218.516V239.913L20.3298 264.547C20.3298 264.547 15.6453 289.745 39.6384 279.719L45.4881 260.473L43.2358 250.509L41.6326 220.698L43.2358 203.274L42.7509 170.976L37.6129 156.391L34.8054 159.315L34.7975 159.323Z" fill="#894325"/>
<path d="M9.43013 212.065C9.43013 212.065 19.8547 208.186 22.5606 209.609C22.5606 209.609 28.4025 208.577 28.8326 197.284C28.8326 197.284 28.4338 182.777 31.7418 177.084C31.7418 177.084 36.3011 164.993 38.8584 161.904L44.6846 149.267L46.3347 138.529L45.4745 132.914L36.8798 138.341L30.5453 153.583L24.3906 165.603L20.0737 176.536L19.6123 183.418L18.7833 189.573L13.1839 202.977L9.42231 209.5L9 212.065" fill="#C58453"/>
<path d="M25.5914 212.519C25.5914 212.519 32.6533 223.389 31.183 232.852C31.183 232.852 24.653 210.501 12.2576 221.591C12.2576 221.591 0.440941 230.138 -7.63756 258.597L-10.6641 241.705L-8.37268 233.259L-0.755583 220.77L8.05804 212.417C8.05804 212.417 17.5129 208.663 18.9832 209.485L25.5914 212.511V212.519Z" fill="#FED6B1"/>
<path d="M55.8428 259.32C55.8428 259.32 42.1727 255.629 41.3906 245.603V224.972L44.6987 200.596L46.5599 191.47C46.5599 191.47 51.5181 179.661 48.7888 172.427L45.3008 159.656V145.439L45.5042 131.941L48.9452 124.629L52.2297 119.889C52.2297 119.889 57.9777 110.943 57.6884 109.285C57.6884 109.285 63.5694 98.7899 65.5558 97.9609L74.471 120.781L84.0276 132.926L98.4093 142.232L115.841 154.096L120.181 163.762L123.873 171.637L125.249 179.833L111.696 185.777L116.467 209.511L108.443 206.024L93.8188 198.79L69.0749 199.11L60.1205 245.063L55.8271 259.328L55.8428 259.32Z" fill="#C0814C"/>
<path d="M64.6412 99.0415C64.6412 99.0415 63.4994 110.968 80.3759 131.653C80.3759 131.653 92.263 144.353 97.9484 147.645C98.8634 148.177 99.7784 148.701 100.662 149.272C105.026 152.103 115.333 159.368 119.971 167.556C119.971 167.556 126.313 180.444 125.68 183.135C125.68 183.135 128.472 170.223 127.455 166.79C127.455 166.79 142.173 146.105 143.948 139.637C143.948 139.637 146.13 132.529 147.827 129.361C147.827 129.361 153.145 121.353 148.859 106.51H117.265L90.0107 100.042L83.0349 92.1751L70.053 88.9766L67.6834 95.3502L64.6412 99.0336V99.0415Z" fill="#2B0404"/>
<path d="M86.6875 110.196C86.6875 110.196 91.8177 123.28 116.507 126.165C116.507 126.165 136.629 133.47 149.11 106.098H113.449L87.6729 101.656L86.6875 110.196Z" fill="black"/>
<path d="M151.766 20.0321C151.766 20.0321 157.068 18.1865 161.565 23.567C161.565 23.567 152.243 24.6931 151.766 20.0321Z" fill="#040002"/>
<path d="M156.104 24.125C156.104 24.125 159.068 24.125 163.158 26.6197C164.316 27.3236 165.536 27.9414 166.779 28.4888C168.179 29.1144 169.9 30.178 170.087 31.6717L165.684 29.7557C165.684 29.7557 168.187 32.5085 169.712 33.6346C169.712 33.6346 170.205 33.9162 170.924 34.4871C176.062 38.5224 177.634 45.6312 174.858 51.5512C173.333 54.7889 171.033 59.2074 168.633 62.0932C168.633 62.0932 166.951 65.0024 163.878 68.3104C163.878 68.3104 167.671 73.5501 164.785 80.3617C164.785 80.3617 164.065 82.6531 162.314 85.5466C162.314 85.5466 163.878 75.9431 162.196 73.8786C162.196 73.8786 159.514 80.5963 156.816 82.4106L153.398 63.4383C153.398 63.4383 156.409 55.2268 156.534 54.8436C156.66 54.4604 158.404 42.6516 158.404 42.6516C158.404 42.6516 158.161 32.0471 158.098 31.8672C158.036 31.6874 156.957 24.821 156.957 24.821L156.112 24.1406L156.104 24.125Z" fill="#040002"/>
<path d="M119.203 9.30698C119.203 9.30698 126.96 3.51205 140.404 7.00778C142.945 7.67251 145.604 10.0108 146.801 11.1682C147.857 12.1849 148.967 13.139 150.164 13.9836C156.099 18.2223 159.235 17.0648 159.235 17.0648C159.235 17.0648 157.296 19.0669 153.018 18.9965L140.912 13.2563L133.365 11.3872L126.828 12.443L118.421 13.7646L105.126 14.4137L98.5489 10.1751L92.4802 11.4654L89.5319 16.7129C89.5319 16.7129 77.8873 26.77 75.4473 27.4191C73.0074 28.0682 68.6201 30.297 68.6201 30.297L71.7092 31.8767L66.97 36.2562L64.1703 48.0416L66.7589 58.607L70.497 65.9112L68.1509 68.5545C68.1509 68.5545 66.4617 71.5654 60.3148 72.3475C60.3148 72.3475 64.7725 70.0561 66.579 66.8028C66.579 66.8028 60.0098 59.2091 56.1544 48.5421C56.1544 48.5421 52.6117 39.619 66.7041 31.3058C66.7041 31.3058 62.6609 31.431 61.1594 32.4554C61.1594 32.4554 62.1995 28.8815 72.108 24.158C72.108 24.158 71.3416 23.8373 69.8401 24.0172C69.8401 24.0172 73.6956 21.0611 77.6136 18.6524C77.6136 18.6524 75.6272 17.6905 73.156 18.2927C73.156 18.2927 73.8207 16.9632 78.9431 16.7833C78.9431 16.7833 84.4878 13.3501 87.4361 10.4566C87.4361 10.4566 92.7539 5.19344 103.452 5.51408C104.219 5.53754 104.985 5.54536 105.751 5.54536C108.145 5.54536 114.104 5.92074 119.226 9.29916L119.203 9.30698Z" fill="#040002"/>
<path d="M97.2516 134.281C84.6998 128.627 67.7529 117.686 64.8594 99.0814L66.9787 95.8906L67.5653 95.9532C67.5653 95.9532 70.537 95.2337 70.537 98.8467C70.537 98.8467 70.8576 109.209 90.7841 121.503C90.7841 121.503 98.4325 126.719 110.046 130.246C116.232 132.123 122.871 132.201 129.026 130.238C136.322 127.915 144.651 122.316 149.594 109.389C149.594 109.389 151.619 118.062 150.039 122.879C150.039 122.879 145.738 130.371 133.726 135.22C121.714 140.068 108.787 139.482 97.2438 134.281H97.2516Z" fill="#FFCA00"/>
<path d="M126.539 243.366C123.192 248.481 122.84 255.339 122.84 255.339C121.471 254.378 121.073 244.899 121.073 244.899C115.606 261.854 110.226 263.535 110.226 263.535C111.352 261.369 111.508 255.097 111.508 255.097C109.021 263.449 105.244 265.138 105.244 265.138C106.527 262.886 107.653 258.147 107.653 258.147C107.653 258.147 103.696 265.467 95.6562 271.098C95.6562 271.098 102.953 257.865 103.445 243.937C103.445 243.937 102.241 239.699 103.383 237.861L106.628 229.548L108.216 221.352C108.216 221.352 107.254 211.709 107.254 211.389C107.254 211.068 109.186 207.134 109.186 207.134L113.119 209.465L117.46 214.126L119.548 207.541L118.265 203.044L116.983 195.81L114.167 184.565L121.479 182.539L127.908 188.42C127.908 188.42 134.813 194.285 139.959 184.166C139.959 184.166 141.726 220.155 126.539 243.374V243.366Z" fill="#280B06"/>
<path d="M81.3866 165.602C81.3866 165.602 87.5334 182.814 108.289 198.111C108.289 198.111 112.199 205.415 111.659 209.326H109.102L108.649 214.331V224.482L107.006 230.793L105.583 237.503L102.627 242.515C102.627 242.515 108.758 254.958 95.1505 269.269L76.6005 280.429L69.9688 280.82L82.2234 251.196L73.6287 234.281L72.1976 212.532L75.3257 192.934L79.8929 183.448L81.324 173.696C81.324 173.696 81.5352 168.307 81.3866 165.586V165.602Z" fill="#612D11"/>
<path d="M136.099 202.799C136.099 202.799 130.077 202.439 118.386 188.456C118.386 188.456 130.32 204.003 127.058 212.074C127.058 212.074 125.494 215.054 122.601 202.674C122.601 202.674 124.532 220.747 119.105 227.261C119.105 227.261 116.211 219.425 114.163 217.979C114.163 217.979 109.822 210.745 109.22 210.745C109.22 210.745 115.007 222.194 113.678 226.894C113.678 226.894 110.542 239.188 111.988 243.403L107.288 234.73C107.288 234.73 107.648 243.403 107.171 244.85C107.171 244.85 105.239 243.043 104.035 240.994C104.035 240.994 104.278 251.841 100.899 254.969C100.899 254.969 98.7719 253.35 98.7876 250.105C98.7876 249.339 98.6155 248.588 98.3418 247.868L96.199 242.308C96.199 242.308 96.5196 245.248 96.3789 247.25C96.3319 247.946 96.5666 248.619 96.9889 249.174C97.591 249.972 98.2245 251.536 97.6458 254.351C97.6458 254.351 96.199 255.681 94.7522 256.283C94.7522 256.283 86.1967 235.676 84.5074 233.025C84.5074 233.025 78.0009 221.091 77.1562 220.372C77.1562 220.372 84.9923 222.421 95.5968 240.376C95.5968 240.376 94.8773 226.276 89.2075 216.516C89.2075 216.516 96.5587 221.459 102.103 238.327C102.103 238.327 103.065 222.905 85.8369 202.056C85.8369 202.056 96.6839 203.62 105.357 223.148C105.357 223.148 105.857 212.888 99.335 200.703C97.8413 197.919 96.7777 194.924 96.199 191.819C96.199 191.819 111.637 202.064 114.522 209.533C114.522 209.533 102.823 180.613 103.91 167.357C103.91 167.357 103.55 159.888 114.03 169.648C114.03 169.648 123.915 181.582 133.19 170.008C133.19 170.008 138.938 176.843 134.152 188.081C134.152 188.081 130.656 198.928 136.083 202.784L136.099 202.799Z" fill="#2B0404"/>
<path d="M46.086 256.302C46.086 256.302 65.3868 210.834 65.8638 183.197C65.8638 183.197 51.6541 193.317 47.1495 194.286C47.1495 194.286 72.0498 180.468 69.907 158.617C69.907 158.617 70.6734 147.207 67.1385 135.32C67.1385 135.32 78.6659 158.398 78.5564 170.348L81.3404 175.627L80.3003 180.632L76.0304 192.245L71.8855 217.208L67.7798 237.025L65.9029 256.013L65.2069 274.235L64.8628 282.094L61.4531 283.697L49.6286 280.452C49.6286 280.452 47.4311 270.489 47.4311 269.793C47.4311 269.097 46.0703 258.734 46.0703 258.734V256.31L46.086 256.302Z" fill="#803D17"/>
<path d="M63.8187 99.5391C63.8187 99.5391 44.5492 136.999 48.1231 153.148C48.1231 153.148 50.4536 172.558 50.9228 180.95C50.9228 180.95 48.2795 207.516 45.3312 220.255C45.3312 220.255 48.7487 212.177 50.4614 211.402C50.4614 211.402 44.4006 234.301 47.6617 247.009C47.6617 247.009 47.3489 260.656 48.2795 263.917C48.2795 263.917 47.474 277.665 62.3954 279.917L64.3505 280.832L66.8843 284.836L70.9822 291.812L70.2862 297.513L65.8129 300.868L55.6385 301.666L44.8229 301.134L37.6828 297.568L38.0035 292.242L40.2949 287.769L41.5696 282.498L42.422 276.265L42.9538 266.998L42.1014 258.106L39.2782 245.695L37.6828 236.748L37.2058 221.358L36.197 206.39L37.1041 200.954L39.4972 194.721L44.6117 185.345L43.9157 176.766L40.8267 166.646L40.1306 159.506C40.1306 159.506 42.8443 140.761 44.6039 136.819C44.6039 136.819 35.1256 145.766 26.8672 163.721L27.0783 153.977L28.2514 149.504L33.2565 140.291L40.1776 127.614L48.0058 118.183L53.8086 114.171L53.8633 110.253L56.2094 106.577L62.5518 99.8675L63.7952 99.5625L63.8187 99.5391Z" fill="#FEDEC5"/>
<path d="M66.3257 83.7655C66.3257 83.7655 65.4263 80.5826 67.9132 75.8122C68.8986 73.9118 70.3297 72.2851 71.9877 70.94C72.973 70.1423 74.3885 68.8754 76.1403 66.9594C76.4688 66.6075 76.5939 66.0835 76.3984 65.6378C76.1794 65.1529 75.5851 64.8479 74.0366 65.9037L69.8996 70.1502L69.0941 68.3045L69.3365 65.9037C69.3365 65.9037 64.4957 59.6395 61.1877 52.2883C59.1778 47.815 59.3811 42.6379 61.8993 38.4305C63.2131 36.233 65.2308 33.8712 68.2886 31.5876C68.2886 31.5876 65.2386 29.961 61.1407 32.4479C61.1407 32.4479 73.192 25.6363 75.3583 24.9168C75.3583 24.9168 81.3018 22.3439 83.2334 20.0994C83.2334 20.0994 81.0672 19.857 71.5028 24.518C71.5028 24.518 71.7139 24.385 72.0815 24.1582C76.5939 21.3585 80.9342 18.2695 85.0165 14.8754C87.9257 12.4589 92.0158 9.42455 94.878 8.76763C94.878 8.76763 108.165 4.66973 118.957 11.3015C118.957 11.3015 133.925 2.55822 145.617 13.2566C145.617 13.2566 147.431 14.8988 150.497 17.0807C153.289 19.075 155.87 21.3351 158.247 23.8063C161.258 26.9423 165.09 31.0637 167.076 33.6757C167.804 34.6376 168.578 35.5526 169.368 36.4676C171.823 39.2986 176.39 46.5012 169.485 55.4947C169.485 55.4947 165.082 64.3005 159.827 67.6242C159.827 67.6242 156.964 67.4678 155.424 65.2311C155.424 65.2311 154.884 65.6925 158.435 70.2518C158.435 70.2518 163.221 76.0546 156.808 82.3813C156.808 82.3813 149.316 79.3783 148.065 74.4358C148.065 74.4358 147.783 81.1144 149.113 83.7421C149.113 83.7421 154.415 90.1001 153.453 95.285C153.453 95.285 153.328 104.106 150.802 106.132C150.2 106.609 149.105 105.483 149.105 105.483C149.105 105.483 144.428 114.343 137.077 120.209C137.077 120.209 131.345 125.3 128.256 127.231C128.256 127.231 135.349 119.998 138.125 114.093C138.125 114.093 125.206 124.494 123.118 126.262C123.118 126.262 120.029 127.067 123.118 122.883C123.118 122.883 124.603 120.271 125.331 119.552C125.331 119.552 122.038 118.504 112.396 110.55C112.396 110.55 118.504 114.007 118.504 122.524C118.504 122.524 113.154 118.911 108.032 116.932C108.032 116.932 90.6785 108.846 88.6295 105.85C88.6295 105.85 90.3344 112.318 97.0834 116.338C97.0834 116.338 83.7965 115.634 77.0475 97.1776V103.481C77.0475 103.481 69.3991 93.4159 67.9523 86.4323C67.9523 86.4323 67.6473 85.0794 67.5926 83.3276L65.004 91.1871C65.004 91.1871 66.3882 86.7295 66.3335 83.7421L66.3257 83.7655Z" fill="#DC9B67"/>
<path d="M116.737 22.9531C116.737 22.9531 117.832 32.236 118.145 34.5821C118.145 34.5821 116.948 36.0445 114.281 36.8266L116.064 33.5342C116.338 33.0258 116.494 32.455 116.51 31.8684L116.737 22.9453V22.9531Z" fill="#3E0400"/>
<path d="M153.917 27.6796C154.495 26.3501 155.715 25.2474 158.241 27.0618C159.227 27.7734 160.056 28.6884 160.705 29.7207C161.69 31.2692 163.716 34.3035 166.281 37.2518C169.839 41.3497 171.083 47.0117 169.409 52.1653C168.971 53.5183 168.369 54.9494 167.555 56.4353C167.555 56.4353 163.896 63.1452 160.236 67.2118C159.962 67.509 159.555 67.6498 159.156 67.5872H159.117C158.007 67.4073 157.248 68.6508 157.905 69.558C158.069 69.7848 158.249 70.0272 158.445 70.2774C158.452 70.2853 163.246 76.0489 156.818 82.4069C156.537 82.7432 153.58 81.1009 150.867 77.1751C146.87 71.3958 145.955 64.0289 148.169 57.3659C150.687 49.7879 154.722 36.2977 153.619 30.7217C153.416 29.6972 153.502 28.6337 153.917 27.6796Z" fill="#6A330C"/>
<path d="M86.0891 273.901C80.0205 277.647 75.9617 279.141 73.4748 279.618C71.3946 280.017 69.3221 278.867 68.6105 276.865C65.1304 267.035 68.7513 239.101 68.7513 239.101C71.2616 229.176 74.859 207.146 74.859 207.146C74.5305 193.625 81.0762 184.678 81.0762 184.678C85.7685 171.047 78.4564 161.014 78.4564 161.014C80.6383 164.611 79.8719 174.215 79.8719 174.215C80.2003 179.994 74.8512 192.209 74.8512 192.209C73.6547 195.048 70.3779 212.386 70.3779 212.386C69.8305 219.26 65.6857 237.912 65.6857 237.912C66.4521 251.113 62.3854 279.915 62.3854 279.915C71.3867 291.161 69.7132 294.993 69.7132 294.993C67.0464 301.406 60.5476 299.912 60.5476 299.912C60.2113 291.497 57.0519 288.002 57.0519 288.002C58.6316 293.836 58.7177 299.498 58.7177 299.498C58.1389 301.468 54.87 301.179 52.9227 300.827C51.7966 300.624 50.866 299.818 50.5453 298.724C49.427 294.915 50.7174 288.088 50.7174 288.088C46.4709 294.25 47.5501 300.499 47.5501 300.499C37.2193 300.162 39.1353 294.25 39.1353 294.25C38.799 291.333 43.7181 284.256 43.7181 284.256C43.2176 281.675 44.1326 273.675 44.1326 273.675C45.8843 266.425 41.3798 248.18 41.3798 248.18C40.0034 243.793 39.237 232.125 38.9398 226.627C38.8616 225.18 38.8929 223.726 38.9554 222.279C39.1822 217.415 37.2975 207.357 37.2975 207.357C36.711 200.773 42.2166 192.78 42.2166 192.78C49.4661 183.529 47.6283 181.863 47.6283 181.863C46.4161 178.664 44.07 171.43 43.0455 168.255C42.8031 167.497 42.5216 166.762 42.2635 166.011C40.1754 160.036 42.5528 142.542 42.5528 142.542C40.3006 146.788 38.8069 162.367 38.8069 162.367C38.5566 164.893 39.237 169.444 39.9799 173.378C41.3172 180.44 40.7463 187.728 38.3846 194.516C37.1646 198.012 36.0541 200.694 36.0541 200.694C34.5291 204.409 35.1938 215.483 35.6552 221.161C35.8038 222.983 35.8742 224.805 35.8038 226.635C35.3659 237.411 40.6368 257.181 40.6368 257.181C42.9751 264.462 40.8714 271.54 39.0415 275.708C37.884 278.343 35.4675 280.205 32.6209 280.619C27.6627 281.339 21.3986 281.018 17.1052 280.643C12.1783 280.205 7.51732 278.164 3.92775 274.762C0.877777 271.86 -1.02258 269.014 -1.02258 269.014C-13.0895 253.334 -7.73251 236.903 -6.09804 232.821C-5.84778 232.195 -5.62881 231.562 -5.41766 230.92C-3.75974 225.845 1.5347 219.847 4.8271 216.46C7.42348 213.794 10.8254 211.987 14.5166 211.541C25.8093 210.165 30.5563 221.614 30.5563 221.614C30.7205 217.532 29.3911 215.53 29.3911 215.53C22.0633 203.87 10.145 211.111 10.145 211.111C13.977 204.362 17.3945 194.782 17.3945 194.782C21.727 188.784 20.8903 182.543 20.8903 182.543C20.8042 172.643 26.1378 165.205 26.1378 165.205C29.5553 161.624 27.5533 161.71 27.5533 161.71C25.7858 155.266 32.7851 142.878 36.273 137.263C37.2662 135.66 38.2438 134.049 39.1431 132.399C45.0945 121.403 55.0499 114.638 55.0499 114.638C56.9659 113.473 57.2161 111.635 57.2161 111.635C56.4967 111.659 55.9883 111.628 55.6286 111.565C55.1359 111.487 54.9091 110.908 55.2141 110.509C56.2386 109.164 58.7255 105.903 58.8037 105.692C63.144 101.993 68.8529 95.7287 68.8529 95.7287L70.2215 82.7937L69.3378 78.8366L71.5901 76.5295L73.9206 73.4796L77.4554 68.1773L78.2609 64.7285L75.688 62.7969L70.9488 66.5741C68.1334 71.8764 59.093 83.4037 59.093 83.4037C59.093 83.4037 60.9621 84.5455 64.755 81.1749C64.755 81.1749 62.5653 86.7352 62.4715 90.0511C62.4558 90.7393 62.9485 91.3336 63.6367 91.4196C65.2399 91.6073 67.8676 92.405 65.5371 95.6974C65.5371 95.6974 56.1995 104.433 54.3304 105.762C54.3304 105.762 49.6929 109.078 51.9217 111.37C51.9217 111.37 53.6657 112.394 51.3195 114.138C51.3195 114.138 41.763 121.56 32.6365 137.2C28.7967 143.785 26.0596 150.957 24.691 158.456C24.3234 160.49 24.0028 162.695 23.7838 164.994C23.7838 164.994 17.3554 172.729 18.2391 182.88C18.2704 183.247 18.3251 183.622 18.3721 183.99C18.505 185.046 18.7396 188.19 17.3554 190.301C17.3554 190.301 14.501 196.753 11.5214 202.798C8.93282 208.038 5.60915 212.871 1.63637 217.156C0.783936 218.079 -0.10759 219.033 -0.967834 219.941C-5.47241 224.703 -8.83519 230.459 -10.5557 236.778C-11.8617 241.587 -12.4091 247.203 -10.6886 252.677C-10.5322 253.177 -10.3758 253.678 -10.2507 254.186C-9.90659 255.563 -9.17146 258.464 -8.74916 259.543H-20.4798C-20.4798 259.543 -28.5114 244.121 -47.7184 241.306C-47.7184 241.306 -32.6327 246.413 -26.9786 255.414C-26.7596 255.758 -26.5328 256.102 -26.2747 256.423C-25.2815 257.658 -22.6695 260.834 -21.7702 261.475H-8.67879C-8.67879 261.475 -5.94945 267.583 -4.50267 269.592C-4.50267 269.592 -26.1105 273.769 -59.9339 272.408C-59.9339 272.408 -59.8557 269.514 -49.4076 264.853C-49.4076 264.853 -42.4161 261.076 -39.2879 262.28C-39.2879 262.28 -40.2498 257.862 -54.311 264.533C-54.311 264.533 -74.3156 269.999 -88.0561 269.592C-88.0561 269.592 -109.586 269.514 -114.169 269.194C-114.169 269.194 -136.339 269.835 -140.602 272.33C-140.602 272.33 -113.605 272.087 -108.147 272.087C-108.147 272.087 -78.9844 272.087 -76.0909 271.767C-76.0909 271.767 -77.0528 273.776 -77.8583 274.097C-77.8583 274.097 -76.5679 275.145 -73.2833 273.252C-71.7271 272.353 -70.0926 271.587 -68.3721 271.063C-66.503 270.492 -64.282 269.96 -62.9134 270.163C-62.9134 270.163 -64.7591 271.243 -65.4082 272.689C-65.7679 273.495 -65.2361 274.418 -64.3524 274.496C-61.9985 274.707 -56.4069 275.145 -51.6677 275.145C-51.6677 275.145 -15.7563 275.786 -2.50064 271.774C-2.50064 271.774 1.08893 276.334 4.65504 279.634C6.84477 281.659 9.66794 282.864 12.6475 283.059C18.4268 283.435 30.1888 283.912 40.3162 282.457C40.3162 282.457 40.1833 286.305 37.9935 289.73C37.3288 290.77 36.7735 291.881 36.4607 293.077C35.7412 295.799 35.5536 299.951 40.6134 300.882C41.239 300.999 41.849 301.156 42.4668 301.328C44.5627 301.906 50.4905 302.962 63.6132 301.828C65.67 301.648 67.6799 300.991 69.3847 299.826C72.1375 297.926 74.7182 294.391 70.7611 288.479C70.7611 288.479 64.0121 281.487 69.5567 282.535C69.5567 282.535 96.8891 281.112 105.069 282.582C106.289 282.801 107.517 282.934 108.761 282.965C114.25 283.075 127.483 282.965 131.002 279.618C131.002 279.618 128.554 269.553 115.635 268.028C113.992 267.833 112.334 267.833 110.684 267.95C106.735 268.232 97.4288 269.068 95.5519 270.781C95.5519 270.781 105.038 263.477 107.439 258.785C107.439 258.785 88.0051 272.744 86.0579 273.948L86.0891 273.901Z" fill="#010002"/>
<path d="M124.352 34.5072C124.352 34.5072 123.374 25.6623 124.422 21.2438C124.79 19.6875 126.354 18.7256 127.918 19.0697C130.366 19.6093 134.55 21.408 137.396 27.3359C137.396 27.3359 130.076 21.2516 127.91 21.9711C127.91 21.9711 124.719 21.5957 124.352 34.4994V34.5072Z" fill="#F7DABD"/>
<path d="M112.076 34.5072C112.076 34.5072 113.053 25.6623 112.005 21.2438C111.638 19.6875 110.074 18.7256 108.51 19.0697C106.062 19.6093 101.878 21.408 99.0312 27.3359C99.0312 27.3359 106.351 21.2516 108.517 21.9711C108.517 21.9711 111.708 21.5957 112.076 34.4994V34.5072Z" fill="#F7DABD"/>
<path d="M97.9106 105.671L89.6445 101.691L87.4078 95.8958L78.1562 85.1896V77.5803L79.8142 74.7494L86.7744 66.796C88.2915 65.8341 88.1742 48.4023 88.1742 48.4023C87.6111 38.924 95.1188 36.8516 95.1188 36.8516C95.1188 36.8516 92.0922 42.1616 95.064 44.9692C95.064 44.9692 101.969 53.0398 105.418 62.8388L130.17 66.2095C133.627 56.4105 140.54 48.3398 140.54 48.3398C143.512 45.5244 140.602 37.2739 140.602 37.2739C140.602 37.2739 146.788 40.1831 146.225 49.6692C146.225 49.6692 144.951 69.2751 146.468 70.237L148.071 76.3525L148.9 83.2658L146.225 86.652L146.984 98.0073L146.303 101.792L143.332 109.754C143.332 109.754 123.609 119.482 121.427 123.095C121.427 123.095 102.439 106.375 97.9106 105.656V105.671Z" fill="#7F3F11"/>
<path d="M106.355 53.6162C105.495 56.3221 103.931 58.7542 103.071 61.4601C101.491 66.4261 99.7002 73.6678 100.631 78.8136L104.619 83.7561L112.604 83.2478L118.141 81.6603L128.206 83.7639L133.954 80.5498L137.387 70.3363C137.387 70.3363 134.876 61.6087 132.077 56.9946C131.076 55.3445 130.153 53.6475 129.402 51.8644C128.91 50.707 128.378 49.3932 127.908 48.095C126.297 43.6373 122.106 40.517 117.367 40.5952C117.179 40.5952 116.983 40.603 116.796 40.6186C113.081 40.8845 109.929 43.4418 108.655 46.9376C107.966 48.8301 107.067 51.3639 106.348 53.6162H106.355Z" fill="url(#paint0_linear_2_1781)"/>
<path d="M115.737 73.3672C115.737 73.3672 109.27 71.3417 107.056 66.5947C105.899 64.1156 106.345 61.1204 108.394 59.3061C108.894 58.8603 109.504 58.4693 110.239 58.2112C110.795 58.0157 111.389 57.9453 111.975 57.9453H123.745C124.707 57.9453 125.669 58.0861 126.568 58.4224C128.234 59.048 130.283 60.4557 130.095 63.6151C130.025 64.8273 129.611 65.9925 128.977 67.0327C128.07 68.5107 126.318 70.8647 123.597 72.4522C121.915 73.4298 119.999 73.9694 118.052 73.8599C117.301 73.8208 116.488 73.68 115.737 73.3672Z" fill="#010002"/>
<path d="M111.203 63.103C111.203 63.103 114.261 58.1136 124.248 60.6474C124.248 60.6474 125.444 60.968 126.312 61.9847C127.407 63.2594 126.164 65.1285 124.568 64.6202C123.794 64.3777 122.816 63.9163 121.589 63.103C121.589 63.103 117.076 59.9592 111.203 63.103Z" fill="white"/>
<path d="M93.2587 57.9453C93.2587 57.9453 95.1356 59.7284 96.5668 67.627C97.2393 71.3182 98.7252 74.8453 101.056 77.7857C102.628 79.7721 104.583 81.5395 106.757 81.9931C106.757 81.9931 109.619 82.697 116.251 79.0214C117.502 78.3253 119.011 78.2628 120.317 78.8571C123.031 80.0849 127.919 81.8289 131.587 80.5463C131.587 80.5463 136.404 78.818 136.169 65.9143C136.169 65.9143 133.518 60.659 132.979 58.5553L136.584 63.6464C137.921 65.5311 138.5 67.8538 138.187 70.1374C137.71 73.6175 136.56 78.8415 133.815 82.7674C132.955 84.003 132.251 85.3403 131.704 86.7479C129.921 91.2994 124.478 100.684 110.87 95.8587C110.87 95.8587 100.5 88.6952 95.7925 76.3311C95.6205 75.8776 95.4484 75.424 95.2529 74.9782C94.6508 73.6018 92.813 68.4716 93.2665 57.9531L93.2587 57.9453Z" fill="#040004"/>
<path d="M106.82 85.1837C106.82 85.1837 118.989 81.993 128.209 85.1837C128.209 85.1837 128.506 90.2514 123.736 92.8086C117.026 96.406 108.65 92.7774 106.867 85.3792C106.852 85.3167 106.836 85.2541 106.82 85.1837Z" fill="url(#paint1_linear_2_1781)"/>
<path d="M135.703 12.6406C135.703 12.6406 153.455 23.4876 148.396 41.4824C148.396 41.4824 145.236 54.0654 146.222 62.2456C146.347 63.2857 146.495 64.3258 146.589 65.3738C146.863 68.5176 148.708 77.2217 160.126 86.0744C160.126 86.0744 158.922 87.8106 149.201 78.8249C149.201 78.8249 152.494 90.1645 160.447 97.1951C160.447 97.1951 155.864 96.5147 154.425 94.7473C154.425 94.7473 156.591 101.176 155.872 104.304C155.872 104.304 153.862 103.584 153.299 99.5647C153.299 99.5647 153.94 105.43 151.931 108.324C151.931 108.324 149.084 109.536 149.631 105.133C149.631 105.133 154.965 93.801 147.817 83.7674C147.817 83.7674 147.34 75.204 143.907 69.0103C143.805 68.8226 143.735 68.6192 143.719 68.4081C143.719 68.3846 143.719 68.3612 143.719 68.3377C143.054 60.8614 143.547 53.3381 145.103 45.9948C146.018 41.6622 146.941 34.2485 144.525 27.7575C144.525 27.7575 140.036 16.6056 135.711 12.6406H135.703Z" fill="#040002"/>
<path d="M98.5447 13.2656C98.5447 13.2656 91.2795 15.1503 85.3751 28.2574C85.2343 28.5624 85.0857 28.8674 84.9372 29.1724C84.3193 30.3689 82.4659 34.7327 84.2255 41.208C85.0154 44.125 85.5863 47.0968 85.7974 50.1155C85.9851 52.8526 86.079 56.1919 85.8287 59.4922C85.5315 63.3555 84.03 67.0623 81.3398 69.8464C81.0269 70.167 80.6985 70.4877 80.3387 70.7927C80.3387 70.7927 76.5302 74.1868 76.8117 78.8243C76.8117 78.8243 77.9613 78.3081 79.6193 77.1272C85.5472 72.8807 89.1289 66.0926 89.473 58.8118C89.6373 55.277 89.5121 50.7646 88.5111 46.0489C88.5111 46.0489 85.0232 33.9116 89.5356 26.1146C89.7467 25.747 89.9735 25.3873 90.1769 25.0119C91.2561 23.0333 95.2836 15.8855 98.5525 13.2734L98.5447 13.2656Z" fill="#040002"/>
<path d="M73.8367 81.711C84.5507 99.2679 97.9315 101.684 97.9315 101.684C85.4344 93.5277 86.6778 80.2721 86.6778 80.2721C84.2457 82.2194 81.6884 87.2323 81.6884 87.2323C81.6884 87.2323 79.2797 76.8624 80.9064 66.2031C80.9064 66.2031 73.7429 75.3217 73.8289 81.6719L73.8445 81.7032L73.8367 81.711Z" fill="#C58359"/>
<path d="M122.14 123.918C122.203 123.809 122.289 123.652 122.406 123.465C123.861 121.048 125.847 118.999 128.178 117.427C130.023 116.184 132.518 114.393 135.083 112.227C135.701 111.703 136.334 111.187 136.976 110.702C138.837 109.302 144.827 103.898 144.585 92.441C144.569 91.5808 144.577 90.7127 144.601 89.8525C144.647 88.1476 144.632 84.9725 144.061 81.2422C144.061 81.2422 156.746 85.6216 149.559 105.892C149.559 105.892 143.654 116.16 135.998 122.221C135.458 122.651 134.895 123.035 134.317 123.41C132.768 124.411 127.841 127.899 126.684 128.579C126.684 128.579 135.787 118.241 136.741 116.129C136.741 116.129 128.318 122.917 127.13 123.605L123.939 126.217C123.595 126.499 123.11 126.522 122.672 126.593C122.023 126.695 120.725 126.077 121.89 124.372L122.14 123.918Z" fill="url(#paint2_linear_2_1781)"/>
<path d="M118.813 123.109C118.813 123.109 112.095 118.722 108.146 117.275C108.146 117.275 91.144 109.885 89.3062 106.921C89.3062 106.921 92.497 113.654 98.0807 116.665C97.7445 117.212 81.4545 114.655 77.3331 98.5605L77.3488 104.34C77.3488 104.34 68.0112 94.2749 67.3621 84.9608L65.2193 91.2954L64.7501 91.139C64.7501 91.139 64.0541 76.5226 71.9292 69.6719C71.9292 69.6719 69.6222 75.8813 74.4239 82.732C74.4239 82.732 75.2842 83.8894 76.8014 85.7194C86.1702 97.0199 98.4405 105.568 112.267 110.502C112.267 110.502 121.464 116.516 118.797 123.117L118.813 123.109Z" fill="url(#paint3_linear_2_1781)"/>
<path d="M80.6941 67.8182C80.092 68.9365 79.2395 69.9063 78.6139 71.0089C76.8934 74.0511 73.9686 79.6505 73.515 83.2479C73.515 83.2479 70.6058 74.8331 70.0036 71.3218C69.8394 70.3442 69.5735 69.3901 69.1746 68.4829L69.0964 68.3031C69.245 66.8015 68.8618 65.2922 67.9938 64.0488C66.2889 61.6166 63.3015 57.0495 61.0727 52.0131C59.2036 47.7901 59.3835 42.9101 61.6436 38.8826C62.9496 36.5521 65.0298 34.034 68.2988 31.5862C68.2988 31.5862 65.2957 31.156 61.1509 32.4464C70.7935 24.6103 80.8505 25.9085 80.8505 25.9085C80.8505 25.9085 77.8162 38.1631 81.875 45.397C81.875 45.397 86.5438 56.94 80.6941 67.8026V67.8182Z" fill="#6A330C"/>
<path d="M104.154 37.859C104.905 39.0164 107.837 40.2286 107.837 40.2286C108.353 37.0926 108.072 34.8168 107.423 33.1667C105.913 29.3113 100.94 28.2712 97.8818 31.063C95.7312 33.026 94.0342 35.7866 93.3069 37.077C93.0097 37.6009 93.2521 38.3048 93.8387 38.4533C94.8162 38.7114 95.4809 37.1317 95.4809 37.1317C95.4809 37.1317 96.654 40.8542 100.283 40.5961C100.283 40.5961 102.981 40.4945 104.162 37.859H104.154Z" fill="#040002"/>
<path d="M100.37 34.5078C100.37 34.5078 104.366 35.2899 103.412 37.9019C103.138 38.6526 102.552 39.2392 101.84 39.5989C100.55 40.248 98.2191 40.7329 96.3891 37.3075C96.3891 37.3075 96.3891 37.3075 96.3891 37.2919C96.2796 36.2674 97.6248 35.806 98.18 36.6741C98.6883 37.4639 99.5173 38.3477 100.628 38.246C100.628 38.246 100.628 38.246 100.643 38.246C101.942 38.3555 102.528 36.5646 101.386 35.9311C101.089 35.7669 100.683 35.634 100.151 35.587C100.151 35.587 99.3687 34.5313 100.362 34.5L100.37 34.5078Z" fill="white"/>
<path d="M130.787 37.859C130.036 39.0164 127.103 40.2286 127.103 40.2286C126.587 37.0926 126.869 34.8168 127.518 33.1667C129.027 29.3113 134.001 28.2712 137.059 31.063C139.209 33.026 140.906 35.7866 141.634 37.077C141.931 37.6009 141.688 38.3048 141.102 38.4533C140.124 38.7114 139.46 37.1317 139.46 37.1317C139.46 37.1317 138.287 40.8542 134.658 40.5961C134.658 40.5961 131.96 40.4945 130.779 37.859H130.787Z" fill="#040002"/>
<path d="M134.564 34.5078C134.564 34.5078 130.568 35.2899 131.522 37.9019C131.796 38.6526 132.382 39.2392 133.094 39.5989C134.384 40.248 136.715 40.7329 138.545 37.3075C138.545 37.3075 138.545 37.3075 138.545 37.2919C138.654 36.2674 137.309 35.806 136.754 36.6741C136.246 37.4639 135.417 38.3477 134.306 38.246C134.306 38.246 134.306 38.246 134.291 38.246C132.992 38.3555 132.406 36.5646 133.548 35.9311C133.845 35.7669 134.252 35.634 134.783 35.587C134.783 35.587 135.565 34.5313 134.572 34.5L134.564 34.5078Z" fill="white"/>
<path d="M115.962 151.693L112.544 138.179C110.793 135.09 113.045 131.258 116.595 131.281L123.524 131.336C127.075 131.367 129.272 135.231 127.466 138.296L123.954 151.755C122.156 154.821 117.706 154.782 115.954 151.693H115.962Z" fill="#FFCA00"/>
<path d="M120.122 142.69C122.869 142.69 125.096 140.463 125.096 137.716C125.096 134.969 122.869 132.742 120.122 132.742C117.375 132.742 115.148 134.969 115.148 137.716C115.148 140.463 117.375 142.69 120.122 142.69Z" fill="#2A354B"/>
<path d="M120.12 150.467C121.857 150.467 123.264 149.06 123.264 147.324C123.264 145.587 121.857 144.18 120.12 144.18C118.384 144.18 116.977 145.587 116.977 147.324C116.977 149.06 118.384 150.467 120.12 150.467Z" fill="#2A354B"/>
<path d="M70.9062 121.617C75.4421 132.558 83.7709 141.825 93.7654 148.066C98.8486 151.218 104.018 154.377 108.773 158.037C112.902 161.267 117.211 164.614 119.987 169.142C120.339 169.814 120.652 170.511 120.816 171.246C119.667 168.462 117.258 166.506 115.045 164.583C108.1 158.905 100.428 154.369 92.7409 149.693C82.5743 143.256 74.0735 133.348 70.9062 121.617Z" fill="#8C4825"/>
<path d="M147.111 132.836C147.658 140.187 144.804 147.601 140.276 153.333C136.819 157.564 133.347 161.717 130.508 166.37C129.593 167.911 128.694 169.529 128.545 171.352C128.412 169.498 129.249 167.739 130.008 166.096C132.471 161.193 135.936 156.845 139.361 152.606C143.811 147.007 146.736 140.023 147.119 132.836H147.111Z" fill="#8C4825"/>
</g>
<path d="M4.14483 106.329C6.43395 106.329 8.28965 104.473 8.28965 102.184C8.28965 99.8948 6.43395 98.0391 4.14483 98.0391C1.8557 98.0391 0 99.8948 0 102.184C0 104.473 1.8557 106.329 4.14483 106.329Z" fill="#26324A"/>
<path d="M3.79231 116.311C5.56314 116.311 6.99869 114.876 6.99869 113.105C6.99869 111.334 5.56314 109.898 3.79231 109.898C2.02147 109.898 0.585938 111.334 0.585938 113.105C0.585938 114.876 2.02147 116.311 3.79231 116.311Z" fill="#26324A"/>
<path d="M165.797 14.586C165.797 14.586 167.119 15.4384 169.441 16.9321C170.012 17.3153 170.677 17.6985 171.349 18.1912C172.022 18.6761 172.741 19.2078 173.516 19.7709C174.29 20.334 175.111 20.9283 175.971 21.5618C176.8 22.2422 177.668 22.9617 178.583 23.7046C179.037 24.08 179.498 24.4554 179.975 24.8464C179.991 24.862 180.014 24.8777 180.03 24.8933C180.405 25.2139 181.008 25.7457 181.375 26.0664C182.306 26.9266 183.268 27.8181 184.253 28.7253C185.262 29.609 186.193 30.6413 187.17 31.6423C187.655 32.1507 188.155 32.659 188.648 33.1751C188.898 33.4332 189.149 33.6913 189.399 33.9572C189.641 34.2231 189.876 34.5046 190.111 34.7861C191.057 35.8966 192.027 37.0228 193.004 38.1646C193.505 38.7198 193.943 39.3454 194.404 39.9398C195.311 41.1363 196.234 42.3407 197.157 43.5528L197.18 43.5841C197.61 44.2254 198.04 44.8667 198.471 45.5079C198.901 46.1492 199.331 46.7905 199.769 47.4318C200.473 48.4797 201.216 49.5042 201.638 50.7398C202.021 51.3498 202.389 51.9442 202.772 52.5541C203.523 53.3988 203.945 54.4389 204.469 55.4086C204.821 56.089 205.165 56.7694 205.517 57.4419C205.861 58.1145 206.205 58.787 206.549 59.4596C206.854 60.1478 207.151 60.836 207.456 61.5164C208.043 62.8849 208.676 64.2066 209.2 65.5517C210.178 68.2654 211.241 70.8461 211.93 73.3956C212.305 74.6625 212.696 75.8825 213.032 77.0712C213.322 78.2755 213.595 79.4408 213.861 80.5591C213.994 81.1143 214.127 81.6618 214.252 82.1936C214.315 82.4595 214.377 82.7254 214.44 82.9834C214.487 83.2493 214.534 83.5074 214.573 83.7655C214.753 84.7978 214.925 85.7753 215.081 86.6903C215.238 87.6053 215.394 88.4655 215.527 89.2554C215.613 90.0531 215.683 90.6396 215.754 91.3044C215.777 91.4842 215.793 91.6641 215.816 91.8362C216.027 93.7522 217.771 95.1364 219.687 94.9096C221.689 94.675 223.066 92.7981 222.706 90.8195C222.667 90.6318 222.636 90.4285 222.597 90.2252C222.464 89.5291 222.331 88.8253 222.174 87.9885C221.971 87.1595 221.752 86.2915 221.51 85.3296C221.267 84.3676 221.017 83.3666 220.751 82.2952C220.681 82.0293 220.618 81.7634 220.548 81.4897C220.462 81.216 220.376 80.9501 220.29 80.6686C220.118 80.1133 219.938 79.5503 219.758 78.9637C219.39 77.8063 219.015 76.602 218.616 75.3507C218.17 74.1229 217.67 72.8638 217.177 71.5656C216.254 68.9458 214.948 66.3103 213.72 63.5575C213.071 62.1967 212.313 60.8516 211.601 59.4752C211.241 58.787 210.874 58.0988 210.506 57.4028C210.1 56.7303 209.693 56.0577 209.278 55.3773C208.872 54.7048 208.457 54.0244 208.043 53.344C207.621 52.6715 207.237 51.9676 206.768 51.3185C205.861 50.0047 204.946 48.683 204.039 47.3692C203.601 46.6967 203.092 46.0788 202.6 45.4454C201.622 44.1941 200.653 42.9507 199.683 41.7072L199.659 41.6759C199.135 41.0816 198.611 40.4872 198.095 39.8929C197.579 39.3063 197.055 38.7198 196.547 38.1333C196.023 37.5546 195.538 36.9524 194.983 36.4206C193.903 35.3257 192.832 34.2465 191.784 33.183C191.518 32.9171 191.268 32.6512 190.994 32.3931C190.721 32.1428 190.447 31.9004 190.173 31.6501C189.626 31.1575 189.086 30.6726 188.554 30.1955C187.483 29.2415 186.466 28.2717 185.379 27.4428C184.316 26.5903 183.276 25.7614 182.275 24.9559L180.836 23.8766C180.836 23.8766 180.789 23.8454 180.765 23.8297C180.257 23.47 179.764 23.1181 179.279 22.774C178.31 22.0858 177.387 21.4289 176.503 20.8032C175.588 20.2323 174.712 19.6849 173.891 19.1766C173.078 18.6682 172.311 18.1912 171.6 17.7454C170.896 17.2997 170.208 16.9712 169.605 16.6271C167.189 15.3055 165.805 14.5469 165.805 14.5469L165.797 14.586Z" fill="#26324A"/>
<path d="M220.637 106.329C222.926 106.329 224.782 104.473 224.782 102.184C224.782 99.8948 222.926 98.0391 220.637 98.0391C218.348 98.0391 216.492 99.8948 216.492 102.184C216.492 104.473 218.348 106.329 220.637 106.329Z" fill="#26324A"/>
<path d="M220.988 116.311C222.758 116.311 224.194 114.876 224.194 113.105C224.194 111.334 222.758 109.898 220.988 109.898C219.217 109.898 217.781 111.334 217.781 113.105C217.781 114.876 219.217 116.311 220.988 116.311Z" fill="#26324A"/>
<path d="M25.5257 169.258C18.0025 169.258 9.23579 164.59 7.19466 151.475C6.89748 149.59 6.68633 147.838 6.52992 146.11C6.34223 144.562 6.16237 143.091 5.92775 141.582C5.65404 139.846 5.30212 137.953 5.02058 136.413C4.61392 134.52 4.26982 132.651 3.96482 130.712C3.62854 128.577 3.957 126.371 4.87199 124.51C6.178 121.859 8.57105 120.084 11.4411 119.638C11.9495 119.56 12.4578 119.521 12.9427 119.521C16.0474 119.521 17.9165 121.108 18.8549 122.14C18.9175 122.14 18.98 122.14 19.0504 122.14C19.5822 122.14 20.2313 122.093 20.9821 122.007L36.3336 120.209C36.5213 120.185 36.6855 120.162 36.8341 120.146C38.187 116.377 41.104 115.125 43.4345 114.766C43.8881 114.695 44.3495 114.656 44.8109 114.656C50.0506 114.656 53.4681 119.02 54.1407 123.329C54.3597 124.752 54.5317 126.144 54.6881 127.497C54.7663 128.131 54.8367 128.764 54.9227 129.398L54.9384 129.562C55.1417 131.533 55.3216 133.363 55.6031 135.138C55.7595 136.131 56.0098 137.163 56.2835 138.258L56.3148 138.391L56.3461 138.54C56.4243 138.907 56.5024 139.283 56.5807 139.658C56.7762 140.558 56.9717 141.496 57.1281 142.489C58.0587 148.464 57.3001 153.36 54.8758 157.051C52.7017 160.351 49.2451 162.525 45.1237 163.166C44.3417 163.291 43.5362 163.354 42.7307 163.354C41.1431 163.354 39.6025 163.119 38.1557 162.674C36.0129 165.763 32.6893 168.359 28.3567 169.032C27.4261 169.18 26.472 169.251 25.5257 169.251V169.258Z" fill="#2A354B"/>
<path d="M50.1957 215.794C47.4898 215.794 43.2824 214.66 38.6136 209.264C35.376 205.518 34.1169 202.077 34.023 198.925C30.3631 198.214 27.0707 195.187 23.3794 190.917C22.4175 189.807 20.4311 187.5 19.0156 184.903C14.9255 177.357 18.9765 172.985 20.3138 171.828C21.831 170.514 23.6453 169.826 25.5691 169.826C26.6718 169.826 27.5868 170.052 28.2359 170.248C28.4001 170.131 28.6035 169.974 28.8615 169.755L40.4123 159.761C40.7642 159.456 41.0301 159.205 41.2335 159.002C40.5296 155.248 42.2736 152.777 43.955 151.323C45.5894 149.907 47.5758 149.164 49.7108 149.164C53.0579 149.164 56.3269 150.986 59.4316 154.576C60.0494 155.287 60.5734 155.983 61.0426 156.601C61.2459 156.875 61.4571 157.149 61.6682 157.422L61.7699 157.555L61.8637 157.688C62.4424 158.517 62.9664 159.245 63.4591 159.815C64.4288 160.942 65.5315 162.06 66.6889 163.249L66.8923 163.46C67.2598 163.859 67.643 164.265 68.0184 164.664C68.8474 165.548 69.7076 166.463 70.5444 167.433C73.5005 170.85 75.4635 174.839 76.0656 178.671C76.9259 184.09 75.135 189.025 71.0371 192.567C68.8239 194.483 66.1884 195.727 63.4435 196.173C63.0134 199.903 61.0504 202.961 58.8294 205.596C59.9321 209.788 57.4296 212.556 56.1783 213.643C54.5595 215.043 52.4323 215.818 50.1957 215.818V215.794Z" fill="#2A354B"/>
<path d="M91.8922 233.314C89.0925 233.314 86.0504 232.884 82.8362 232.031C74.3901 229.787 68.5717 225.736 65.5295 219.98C62.8862 214.983 62.5812 208.945 64.6615 202.986L67.5159 192.233C66.554 190.857 65.0525 188.26 65.9518 184.773C66.4523 182.677 68.3996 177.93 75.9229 177.93C78.2925 177.93 81.1548 178.383 84.6818 179.322C89.6008 180.628 92.7603 181.973 94.9187 183.67C95.9197 184.46 96.733 185.359 97.3352 186.329C98.7116 185.492 100.565 184.906 103.044 184.906C105.758 184.906 108.472 185.633 109.934 186.016L110.122 186.063C111.279 186.368 113.696 187.009 115.877 188.151C122.697 191.709 121.852 197.168 121.43 198.755C120.648 201.704 118.724 203.675 115.721 204.613L112.28 217.564C109.621 227.574 102.192 233.306 91.8922 233.306V233.314ZM90.0153 208.281C89.2958 210.987 89.6321 212.089 89.7025 212.285C89.7963 212.527 90.375 212.715 90.7113 212.801C91.376 212.981 91.8218 213.012 92.0799 213.012C92.3067 213.012 92.4162 212.981 92.4396 212.973C92.4396 212.965 92.6351 212.731 92.7915 212.121L96.0683 199.78C95.5756 199.326 95.1455 198.849 94.7858 198.357C94.1054 198.779 93.3155 199.123 92.3849 199.358L90.0153 208.273V208.281Z" fill="#2A354B"/>
<path d="M126.8 235.062C122.382 235.062 118.894 232.826 117.478 229.08C116.032 225.24 117.518 222.409 118.542 220.962C118.143 219.421 117.463 217.357 116.665 215.237C115.375 211.82 114.155 208.582 112.536 205.657C108.939 205.204 106.506 203.35 105.302 200.16C104.465 197.946 104.543 195.546 105.521 193.395C107.39 189.281 111.84 187.146 116.376 185.457L116.704 185.332C118.573 184.628 120.286 184.042 122.343 184.042C124.399 184.042 126.143 184.644 127.895 185.316L132.048 186.873C131.962 185.473 132.22 184.073 132.814 182.767C134.754 178.497 139.516 176.714 142.074 175.76L142.707 175.517C144.443 174.845 147.352 173.727 150.355 173.727C154.539 173.727 157.871 175.932 159.263 179.615C160.444 182.751 159.998 185.661 157.918 188.288C158.27 189.571 158.95 191.393 159.224 192.112L164.127 205.102L164.307 205.571C165.949 209.81 167.545 214.698 165.644 218.929C164.706 221.025 163.009 222.628 160.866 223.441C159.842 223.832 158.747 224.028 157.621 224.028C155.877 224.028 154.375 223.551 153.405 223.191L144.388 219.695C145.468 223.511 144.021 227.39 140.416 230.206C138.844 231.433 136.803 232.528 134.339 233.451C131.532 234.515 128.982 235.047 126.785 235.047L126.8 235.062Z" fill="#2A354B"/>
<path d="M174.546 202.562C169.314 202.562 164.176 200.911 159.695 197.791C147.691 189.439 145.259 173.61 154.049 160.973C159.195 153.574 166.843 149.5 175.586 149.5C181.084 149.5 186.777 151.174 190.813 153.989C196.772 158.134 200.447 164.437 201.175 171.733C201.839 178.396 200.009 185.224 196.021 190.956C190.899 198.323 183.07 202.554 174.546 202.554V202.562Z" fill="#2A354B"/>
<path d="M187.103 158.762C186.595 158.762 186.094 158.707 185.594 158.606C183.036 158.066 181.597 156.314 180.69 155.039C179.267 155.829 177.351 156.533 174.934 156.541C174.035 156.541 173.112 156.439 172.182 156.244C165.307 154.805 161.037 148.345 162.461 141.526C163.689 135.676 168.92 131.586 175.192 131.586C176.162 131.586 177.14 131.688 178.094 131.883C182.145 132.728 186.493 135.301 190.036 138.945C192.452 141.432 196.347 146.382 195.252 151.598C194.524 155.071 191.42 158.754 187.103 158.754V158.762Z" fill="#2A354B"/>
<path d="M201.119 143.569C199.016 143.569 197.162 142.951 195.715 141.864C194.206 142.513 192.462 142.959 190.437 143.068C190.132 143.084 189.834 143.092 189.537 143.092C181.357 143.092 175.054 136.648 174.553 127.771C174.467 126.301 174.585 124.886 174.71 123.564L174.725 123.368C174.725 123.368 174.811 122.813 174.835 122.672C174.553 121.953 174.154 120.85 174.076 119.482C173.677 112.553 182.092 107.821 186.8 107.548C186.972 107.54 187.136 107.532 187.301 107.532C189.123 107.532 190.828 108.103 192.243 109.073C194.089 107.79 196.38 106.891 199.266 106.727C199.532 106.711 199.798 106.703 200.063 106.703C208.048 106.703 214.453 113.523 214.969 122.563C215.071 124.393 214.899 126.489 214.813 127.419L214.75 128.327C214.719 128.757 214.695 129.132 214.68 129.406C214.68 129.414 214.703 129.5 214.703 129.5C214.797 129.938 214.954 130.626 215 131.478C215.102 133.316 214.938 136.069 212.248 138.704C210.042 140.91 205.71 143.311 201.8 143.53C201.573 143.545 201.346 143.545 201.127 143.545L201.119 143.569Z" fill="#2A354B"/>
<path d="M40.2683 158.239C39.7678 157.832 39.3768 157.402 38.6886 157.512C38.0004 157.621 37.8753 158.231 37.6954 158.802C37.1871 161.101 34.966 165.301 30.5162 165.997C25.2218 166.826 18.1521 164.292 16.4942 153.648C16.2127 151.85 16.0093 150.199 15.8686 148.596C15.6731 147.001 15.4775 145.406 15.2195 143.763C14.9379 141.965 14.5938 140.119 14.2654 138.328C13.8822 136.545 13.5459 134.754 13.2565 132.901C12.9985 131.258 13.6632 129.256 15.5167 128.967C18.8012 128.451 16.0015 132.416 24.8386 131.36L40.1823 129.569C48.2295 128.639 43.8657 124.658 47.5178 124.087C49.5277 123.774 50.8181 125.792 51.0761 127.434C51.3811 129.397 51.5845 131.368 51.8347 133.339C52.0381 135.317 52.2336 137.288 52.5386 139.251C52.7341 140.526 53.0312 141.722 53.3284 142.926C53.5709 144.139 53.8758 145.39 54.0635 146.61C55.5729 156.299 51.3577 159.506 47.2754 160.139C44.8433 160.522 42.0905 159.92 40.2527 158.247L40.2683 158.239ZM27.2786 144.483C21.1395 145.437 21.1317 146.469 21.3898 148.111C21.859 151.13 24.0878 151.865 26.8406 151.435C30.0705 150.935 32.7842 149.535 32.2054 145.828C31.9474 144.186 31.048 143.951 29.9219 144.068L27.2786 144.483ZM40.1979 142.465C38.1333 142.786 37.1089 142.84 37.3669 144.483C37.8596 147.658 40.1979 148.057 43.1149 147.603C45.5002 147.236 48.339 145.976 47.8854 143.059C47.5804 141.096 46.0241 141.558 44.4913 141.8L40.2057 142.465H40.1979Z" fill="#FFCA03"/>
<path d="M47.6301 167.623C53.9099 162.188 48.6546 161.351 51.165 159.177C53.3938 157.246 56.4125 160.163 57.8123 161.789C58.5475 162.642 59.1653 163.518 59.8613 164.409C60.4791 165.293 61.136 166.208 61.8399 167.021C62.9582 168.319 64.1625 169.547 65.406 170.814C66.5712 172.073 67.8069 173.34 68.9252 174.638C72.8901 179.221 75.4552 186.283 70.0591 190.944C67.627 193.048 64.2564 193.908 61.1986 192.578C60.6824 192.391 60.3149 192.211 59.83 192.633C59.22 193.157 59.5172 193.83 59.7362 194.486C61.136 198.232 60.3618 201.103 56.4751 205.459C53.1279 209.205 57.6716 209.877 55.2003 212.012C53.6597 213.342 50.4299 212.88 46.4649 208.297C40.8577 201.814 43.8842 197.779 48.1463 191.89C49.6244 189.833 50.8522 187.565 48.9283 185.337C48.1541 184.445 47.7553 184.226 45.198 186.431C44.0249 187.448 42.4687 188.934 41.5146 190.115C39.927 192.054 42.2888 193.626 40.3415 195.308C38.8791 196.567 36.9083 196.504 31.2307 189.935C29.5493 187.988 24.5677 182.232 27.5316 179.675C29.6353 177.852 30.8084 182.154 36.0794 177.594L47.6301 167.6V167.623ZM53.9803 178.572C52.8542 179.401 51.7906 179.972 52.948 181.309C55.2238 183.945 57.4213 183.53 59.9317 181.356C61.9181 179.635 63.5213 177.399 61.4879 175.045C60.1898 173.543 59.2904 174.396 57.9687 175.397L53.9803 178.564V178.572Z" fill="#FFCA03"/>
<path d="M105.442 203.807C106.912 198.262 101.892 199.208 102.689 196.198C103.542 192.983 109.524 194.688 111.644 195.251C113.614 195.775 119.308 197.285 118.51 200.288C117.744 203.189 114.326 200.397 113.075 205.113L109.36 219.096C108.742 221.426 105.497 233.876 87.5724 229.114C67.1611 223.694 73.6207 208.554 73.785 207.928L76.9601 195.963C78.0314 192.757 74.5123 191.818 75.1457 189.433C75.3412 188.706 75.5367 185.656 86.2116 188.487C94.6577 190.731 95.9481 192.733 95.4163 194.759C94.4231 198.489 91.5686 194.016 89.6292 200.264L87.0953 209.797C85.4609 215.96 86.7434 220.519 92.2333 221.974C100.421 224.148 101.852 217.266 102.009 216.695L105.434 203.799L105.442 203.807Z" fill="#FFCA03"/>
<path d="M144.618 200.243C145.408 200.516 147.559 201.369 148.466 201.025C149.717 200.555 148.99 198.475 148.669 197.623C148.2 196.372 147.332 194.237 146.495 193.228C145.002 191.39 142.624 193.142 141.6 190.436C140.388 187.229 145.557 185.446 147.661 184.649C149.866 183.812 155.239 181.505 156.545 184.962C157.624 187.816 154.566 187.769 154.589 190.397C154.621 192.446 155.794 195.558 156.513 197.459L161.417 210.441C162.269 212.693 165.163 219.45 161.8 220.717C160.799 221.092 159.72 220.818 158.719 220.451L137.987 212.411C137.04 212.028 135.281 211.309 134.225 211.707C132.669 212.294 133.85 215.571 134.249 216.626C134.78 218.026 135.531 219.864 136.321 221.061C138.284 223.985 140.489 221.78 141.412 224.236C142.679 227.591 137.627 229.843 135.273 230.735C132.966 231.603 127.687 233.253 126.459 229.992C125.458 227.333 128.759 227.286 128.055 223.892C127.593 221.6 126.498 218.41 125.646 216.149C124.285 212.536 122.901 208.876 120.985 205.475C118.287 200.767 115.417 204.083 114.283 201.072C112.938 197.513 119.781 195.159 122.041 194.307C125.153 193.134 125.779 193.126 128.79 194.284L144.611 200.227L144.618 200.243Z" fill="#FFCA03"/>
<path d="M166.391 195.784C157.061 189.293 155.638 177.265 162.308 167.678C170.755 155.532 184.691 158.309 190.368 162.258C199.831 168.835 200.261 181.543 194.012 190.521C187.553 199.804 175.76 202.306 166.391 195.784ZM167.454 174.262C165.742 176.726 167.439 179.737 169.589 181.23C173.327 183.835 185.676 188.503 188.984 183.756C190.853 181.074 189.312 178.305 186.943 176.655C182.939 173.871 171.036 169.116 167.454 174.262Z" fill="#FFCA03"/>
<path d="M184.464 150.685C182.524 150.278 181.367 154.251 176.588 153.257C173.077 152.522 170.973 149.457 171.709 145.945C172.498 142.168 176.37 140.408 179.936 141.151C186.075 142.434 192.996 149.902 192.253 153.469C192.065 154.36 191.095 155.854 189.993 155.627C188.89 155.392 187.756 151.381 184.456 150.692L184.464 150.685Z" fill="#FFCA03"/>
<path d="M184.066 127.321C184.223 126.343 184.34 125.483 184.316 125.108C184.285 124.576 184.097 124.154 183.863 123.684C183.675 123.215 183.487 122.738 183.456 122.261C183.315 119.798 188.102 117.061 190.291 116.935C191.738 116.857 192.88 118.023 192.958 119.415C193.13 122.465 189.001 124.42 189.134 126.774C189.189 127.735 190.049 128.65 191.065 128.596C194.491 128.4 194.46 116.591 202.757 116.122C207.786 115.833 211.539 120.502 211.86 126.07C211.923 127.141 211.852 128.705 211.711 130.05C211.625 131.395 211.532 132.584 211.555 132.905C211.578 133.28 211.649 133.601 211.719 133.968C211.79 134.289 211.86 134.602 211.883 134.977C211.946 136.049 211.813 136.596 211 137.394C209.576 138.817 206.605 140.326 204.571 140.444C203.179 140.522 202.03 140.107 201.944 138.551C201.811 136.197 206.988 133.757 206.816 130.762C206.753 129.691 206.159 128.705 204.986 128.776C201.826 128.955 202.053 139.466 193.224 139.967C187.875 140.272 184.254 136.08 183.941 130.566C183.878 129.495 183.98 128.361 184.082 127.337L184.066 127.321Z" fill="#FFCA03"/>
<path d="M43.295 147.53C45.6802 147.162 48.5191 145.903 48.0655 142.986C47.7605 141.023 46.2042 141.484 44.6714 141.727L40.3858 142.392C38.3212 142.712 37.2967 142.767 37.5548 144.409C38.0475 147.584 40.3858 147.983 43.3028 147.53H43.295Z" fill="#EFB600"/>
<path d="M32.3931 145.754C32.135 144.112 31.2357 143.877 30.1095 143.994L29.9688 144.018C30.7195 145.34 31.4937 146.638 32.3071 147.92C32.4791 147.302 32.526 146.591 32.3931 145.754Z" fill="#EFB600"/>
<path d="M40.4542 158.169C42.2842 159.834 45.037 160.436 47.477 160.061C51.5514 159.428 55.7745 156.221 54.2651 146.532C54.0774 145.312 53.7724 144.06 53.53 142.848C53.2328 141.644 52.9356 140.447 52.7401 139.173C52.4351 137.218 52.2396 135.239 52.0363 133.26C51.786 131.298 51.5827 129.319 51.2777 127.356C51.0196 125.714 49.7293 123.696 47.7194 124.009C44.0673 124.58 48.4311 128.56 40.3839 129.491L25.0402 131.282C24.6491 131.329 24.2894 131.36 23.9375 131.391C25.658 135.763 27.6757 139.978 29.967 144.021L30.1078 143.998C31.2261 143.881 32.1333 144.115 32.3914 145.758C32.5243 146.594 32.4774 147.306 32.3054 147.924C34.3856 151.224 36.6535 154.399 39.1013 157.426C39.6566 157.426 40.0163 157.809 40.4542 158.169Z" fill="#EFB600"/>
<path d="M37.5548 144.407C37.2967 142.765 38.3212 142.718 40.3858 142.389L44.6714 141.725C46.2042 141.482 47.7605 141.029 48.0655 142.984C48.5191 145.893 45.6803 147.152 43.295 147.527C40.3858 147.981 38.0397 147.59 37.547 144.407H37.5548Z" fill="#2A354B"/>
<path d="M69.1228 174.564C68.0045 173.266 66.761 171.999 65.6036 170.74C64.368 169.473 63.1636 168.245 62.0375 166.947C61.3337 166.133 60.6846 165.211 60.0589 164.335C59.3629 163.451 58.7451 162.567 58.01 161.715C56.6101 160.096 53.5914 157.179 51.3626 159.103C48.8992 161.23 53.8964 162.082 48.1719 167.236C51.2766 170.176 54.569 172.906 58.0334 175.432L58.1586 175.33C59.488 174.321 60.3796 173.477 61.6778 174.978C62.7101 176.175 62.8039 177.34 62.3816 178.427C65.8852 180.703 69.5295 182.76 73.3145 184.59C73.4162 181.063 71.5237 177.356 69.115 174.564H69.1228Z" fill="#EFB600"/>
<path d="M86.3977 188.431C83.2148 187.586 80.9626 187.266 79.3672 187.25C84.3253 189.244 89.479 190.847 94.7969 192.028C93.6238 190.871 91.1369 189.69 86.3899 188.431H86.3977Z" fill="#EFB600"/>
<path d="M162.496 167.611C158.703 173.054 157.53 179.287 158.93 184.847C162.144 183.322 165.264 181.625 168.283 179.779C166.985 178.184 166.359 176.041 167.642 174.196C169.605 171.38 174.062 171.529 178.348 172.702C182.5 169.378 186.387 165.742 189.961 161.808C183.963 158.078 170.66 155.872 162.496 167.619V167.611Z" fill="#EFB600"/>
<path d="M180.139 141.065C176.573 140.323 172.702 142.082 171.912 145.859C171.177 149.371 173.273 152.436 176.792 153.171C181.562 154.165 182.72 150.192 184.667 150.599C187.975 151.287 189.101 155.299 190.204 155.533C191.307 155.76 192.276 154.266 192.464 153.375C193.207 149.809 186.286 142.34 180.147 141.058L180.139 141.065Z" fill="#EFB600"/>
<path d="M202.944 116.044C194.655 116.513 194.678 128.322 191.253 128.518C190.236 128.572 189.376 127.657 189.321 126.695C189.188 124.341 193.318 122.386 193.145 119.336C193.067 117.944 191.925 116.779 190.479 116.857C188.289 116.982 183.503 119.727 183.644 122.183C183.675 122.668 183.863 123.137 184.05 123.606C184.293 124.076 184.473 124.498 184.504 125.03C184.527 125.405 184.41 126.265 184.254 127.243C184.152 128.267 184.058 129.401 184.113 130.473C184.426 135.986 188.047 140.178 193.396 139.873C202.225 139.372 201.998 128.862 205.158 128.682C206.331 128.611 206.925 129.597 206.988 130.668C207.16 133.663 201.983 136.103 202.116 138.457C202.202 140.006 203.351 140.428 204.743 140.35C204.767 140.35 204.79 140.342 204.814 140.342C207.574 134.962 209.858 129.284 211.61 123.387C210.46 119.047 207.152 115.794 202.929 116.036L202.944 116.044Z" fill="#EFB600"/>
<path d="M172.129 243.939C173.341 243.008 174.092 241.648 174.092 240.107C174.092 237.855 172.716 236.033 170.463 235.352C169.642 235.094 168.586 234.985 167.022 234.985C165.841 234.985 165.036 235.047 164.426 235.172C162.901 235.493 161.853 236.212 161.18 237.088L160.727 236.689C159.976 236.025 159.249 235.579 158.498 235.321C157.818 235.086 157.02 234.977 155.98 234.977C154.705 234.977 153.861 235.016 153.219 235.11C152.547 235.211 151.952 235.376 151.436 235.587C150.646 235.063 149.747 234.773 148.777 234.773C148.332 234.773 147.878 234.844 147.354 234.992C147.119 235.063 146.885 235.141 146.65 235.227C146.564 235.258 146.47 235.297 146.384 235.321C146.212 235.337 146.017 235.164 145.806 235.196C145.344 235.258 144.867 235.125 144.288 235.125H138.509C138.235 235.125 138.009 235.305 137.813 235.29C137.508 235.266 137.25 235.352 137.039 235.352C136.656 235.352 136.312 235.438 135.967 235.516L135.874 235.563C135.874 235.563 135.819 235.595 135.788 235.602C135.78 235.602 135.772 235.602 135.764 235.602C134.654 235.18 133.262 234.985 131.377 234.985C129.891 234.985 128.648 235.11 127.576 235.368C127.263 235.446 126.958 235.548 126.661 235.673C125.652 235.25 124.315 234.977 122.555 234.977C121.414 234.977 120.28 235.086 119.193 235.305C118.121 235.516 117.277 235.853 116.596 236.244C115.986 235.978 115.322 235.829 114.633 235.829C114.414 235.829 114.195 235.845 113.992 235.868C112.553 235.235 111.036 234.906 109.487 234.906C107.806 234.906 106.164 235.25 104.592 235.939C103.794 236.283 103.051 236.705 102.363 237.174C100.869 235.297 99.1958 234.875 97.9992 234.875C97.4127 234.875 96.9122 234.805 96.5368 234.953C95.8565 234.961 95.223 235.141 94.6365 235.141H90.1163C89.9442 235.141 89.7253 235.227 89.4672 235.188L89.3968 235.266C89.1543 235.196 88.8884 235.172 88.6382 235.118C88.3879 235.055 87.9187 234.945 87.3322 234.945C86.6049 234.945 85.6821 235.118 84.7202 235.673C84.3135 235.509 83.8677 235.376 83.3672 235.274C82.374 235.078 81.3183 234.985 80.2234 234.985C79.0191 234.985 77.8226 235.102 76.6808 235.337C75.711 235.524 74.9603 235.743 74.3425 236.033C73.8889 235.743 73.3727 235.509 72.8097 235.352C71.9181 235.11 70.792 235 69.2748 235C67.2963 235 65.9433 235.18 64.8719 235.587C64.8485 235.595 64.825 235.602 64.8015 235.61C64.7781 235.602 64.7546 235.595 64.739 235.587C63.7067 235.18 62.4398 234.992 60.7506 234.992C59.3429 234.992 58.162 235.086 57.161 235.29C55.9488 235.524 54.9947 235.947 54.2361 236.572C53.11 237.503 52.4922 238.832 52.4922 240.31C52.4922 241.679 53.0631 242.946 54.0563 243.861C54.1032 244.439 54.1579 245.409 54.1579 247.005C54.1579 248.389 54.111 249.249 54.0563 249.765C53.11 250.696 52.586 251.9 52.586 253.198C52.586 254.34 52.9771 255.404 53.7278 256.28C54.3769 257.046 55.245 257.601 56.2382 257.875L56.3007 257.891C57.2705 258.141 58.5296 258.258 60.2735 258.258C62.299 258.258 63.6832 258.102 64.7546 257.758C65.2864 257.586 65.7556 257.304 66.1545 257.038C67.3197 257.875 68.5475 257.812 69.0167 257.812H73.2789C73.9984 257.812 74.6396 257.773 75.2105 257.609C76.2194 257.969 77.5176 258.227 79.1911 258.227C80.8647 258.227 82.4131 258.086 83.7113 257.773C84.5794 257.562 85.2911 257.234 85.8619 256.827C86.2999 257.132 86.8082 257.398 87.4026 257.601C88.7242 258.055 90.4212 258.266 92.7439 258.266C94.7381 258.266 96.2084 258.07 97.3736 257.656C98.969 257.085 100.087 256.022 100.611 254.676C101.612 255.717 102.801 256.553 104.162 257.163C105.89 257.945 107.665 258.336 109.441 258.336C111.216 258.336 112.905 257.945 114.508 257.179C114.672 257.101 114.774 257.062 114.821 257.046C115.118 256.983 115.454 256.905 115.799 256.788C116.291 257.171 116.862 257.476 117.519 257.695C118.684 258.078 120.053 258.258 121.687 258.258C123.509 258.258 124.964 258.039 126.129 257.593C126.215 257.562 126.301 257.531 126.38 257.492C126.442 257.523 126.513 257.554 126.583 257.578C127.701 258.039 129.093 258.25 130.962 258.25C132.941 258.25 134.388 258 135.506 257.586C136.312 257.859 137.023 257.805 137.367 257.805H146.9C147.315 257.805 147.675 257.93 148.058 258.008L148.371 258.094C148.637 258.141 149.004 258.227 149.442 258.227C150.498 258.227 151.295 257.898 151.835 257.554C152.875 258.016 154.111 258.25 155.62 258.25C159.562 258.25 161.321 256.804 162.103 255.372L163.339 256.483C163.957 257.038 164.395 257.382 164.817 257.625C165.552 258.047 166.405 258.274 167.28 258.274C169.04 258.274 171.191 257.273 171.973 254.465C172.262 253.449 172.309 252.268 172.301 250.571C172.301 250.008 172.16 249.507 172.145 249.069C172.137 248.772 172.004 248.514 172.004 248.295V244.627C172.004 244.361 172.129 244.134 172.137 243.947L172.129 243.939ZM72.5281 244.94C72.7784 244.901 72.9974 244.846 73.2163 244.784C73.2554 244.768 73.2945 244.752 73.3336 244.737C73.3415 245.042 73.3493 245.401 73.3493 245.824V245.886C72.8879 245.347 72.5281 244.94 72.5281 244.94Z" fill="#2A354B"/>
<path d="M73.8382 251.708C73.5567 251.583 73.3377 251.458 73.1969 251.341C73.0561 251.224 72.7981 250.95 72.4227 250.512L68.2153 245.648C67.9416 245.327 67.7461 245.069 67.6444 244.881C67.5427 244.694 67.4958 244.506 67.4958 244.318C67.4958 243.974 67.7148 243.591 68.1606 243.169L69.3649 242.011C69.6777 241.714 69.9358 241.518 70.1313 241.432C70.3268 241.346 70.624 241.299 71.0228 241.292C71.5937 241.292 71.9535 241.253 72.1099 241.206C72.321 241.143 72.4931 241.01 72.6417 240.807C72.7824 240.603 72.8528 240.377 72.8528 240.134C72.8528 239.524 72.5087 239.133 71.8283 238.946C71.2731 238.797 70.4207 238.719 69.2632 238.719C67.8165 238.719 66.792 238.836 66.1976 239.063C65.5955 239.29 65.2983 239.681 65.2983 240.236C65.2983 240.392 65.3452 240.564 65.4469 240.752C65.5876 241.018 65.658 241.221 65.658 241.362C65.658 241.62 65.3765 242.089 64.8134 242.793C64.3285 243.395 64.0001 243.771 63.8437 243.919C63.6873 244.068 63.5152 244.146 63.3432 244.146C63.0616 244.146 62.9131 243.833 62.9131 243.2C62.9131 242.817 62.96 242.426 63.0616 242.035C63.1633 241.644 63.2728 241.386 63.3901 241.284C63.7185 241.018 63.9219 240.83 64.0001 240.705C64.0783 240.58 64.1174 240.408 64.1174 240.181C64.1174 239.642 63.8593 239.266 63.351 239.055C62.7801 238.828 61.9042 238.719 60.7311 238.719C59.5581 238.719 58.6196 238.797 57.8532 238.946C57.2745 239.055 56.86 239.219 56.5941 239.438C56.3283 239.657 56.2031 239.947 56.2031 240.306C56.2031 240.736 56.4143 241.065 56.8288 241.307C57.0868 241.456 57.2745 241.612 57.3762 241.769C57.4779 241.925 57.5639 242.183 57.6264 242.543C57.7829 243.419 57.8611 244.905 57.8611 247.008C57.8611 248.768 57.7829 250.074 57.6343 250.919C57.5561 251.302 57.4779 251.576 57.3918 251.732C57.3058 251.896 57.165 252.045 56.9617 252.178C56.5159 252.459 56.2892 252.803 56.2892 253.202C56.2892 253.452 56.3752 253.671 56.5394 253.875C56.7115 254.07 56.9304 254.211 57.1963 254.281C57.8298 254.446 58.8464 254.532 60.2307 254.532C61.7869 254.532 62.8974 254.422 63.5543 254.211C64.2112 254 64.5397 253.64 64.5397 253.147C64.5397 252.756 64.3364 252.436 63.9297 252.17C63.742 252.045 63.6247 251.959 63.57 251.92C63.2884 251.662 63.1399 251.208 63.1399 250.535C63.1399 249.722 63.3588 249.308 63.7889 249.308C63.9297 249.308 64.0861 249.378 64.2582 249.519C64.4302 249.66 64.7196 249.949 65.1419 250.402C66.1038 251.443 66.8702 252.365 67.4567 253.171C67.8243 253.671 68.0902 253.789 68.2622 253.914C68.4343 254.039 68.6611 253.914 68.9504 253.914H73.2126C74.3465 253.914 74.9096 253.718 74.9096 252.921C74.9096 252.584 74.8236 252.412 74.6593 252.201C74.4873 251.99 74.2058 251.896 73.7991 251.724L73.8382 251.708Z" fill="#FFFEA6"/>
<path d="M83.2503 241.206C83.6648 240.994 83.9229 240.838 84.0167 240.729C84.1184 240.619 84.1653 240.455 84.1653 240.236C84.1653 239.579 83.657 239.149 82.6403 238.946C81.8817 238.797 81.0762 238.719 80.2238 238.719C79.2619 238.719 78.3156 238.813 77.3771 239C76.5873 239.149 76.0399 239.321 75.727 239.509C75.4142 239.696 75.2578 239.954 75.2578 240.275C75.2578 240.486 75.3126 240.658 75.4142 240.791C75.5159 240.924 75.727 241.096 76.032 241.299C76.4309 241.55 76.6811 241.823 76.7828 242.128C76.9783 242.668 77.0722 243.896 77.0722 245.812C77.0722 248.588 77.0018 250.395 76.861 251.255C76.7906 251.646 76.5795 251.951 76.2119 252.178C75.7349 252.467 75.4924 252.788 75.4924 253.124C75.4924 254.055 76.7124 254.516 79.1602 254.516C80.5913 254.516 81.8035 254.399 82.7889 254.156C83.7039 253.929 84.1575 253.523 84.1575 252.921C84.1575 252.491 83.9072 252.17 83.4145 251.943C83.1486 251.81 82.9531 251.685 82.8436 251.568C82.7342 251.45 82.6559 251.286 82.6012 251.067C82.4604 250.387 82.39 248.612 82.39 245.749C82.39 244.052 82.4448 242.918 82.5543 242.332C82.6637 241.745 82.8906 241.37 83.2347 241.198L83.2503 241.206Z" fill="#FFFEA6"/>
<path d="M97.9981 238.602C97.826 238.602 97.6305 238.68 97.4037 238.735C96.8798 238.883 96.301 238.257 95.6598 239.04H89.7319C89.3956 239.04 89.0984 238.977 88.8404 238.953C88.5823 238.922 88.2538 238.844 87.8472 238.766C87.6517 238.719 87.4796 238.688 87.331 238.688C86.7758 238.688 86.2127 239.063 85.6418 239.829C85.2899 240.299 85.0084 240.815 84.7972 241.37C84.5861 241.925 84.4844 242.441 84.4844 242.903C84.4844 243.364 84.6173 243.763 84.8754 244.068C85.1335 244.373 85.4697 244.522 85.8764 244.522C86.2361 244.522 86.6037 244.373 86.9869 244.084C87.3076 243.833 87.722 243.333 88.2225 242.567C88.4963 242.144 88.7856 241.933 89.075 241.933C89.3174 241.933 89.4894 242.074 89.5911 242.363C89.6928 242.653 89.7475 243.13 89.7475 243.802C89.7475 244.764 89.7241 245.898 89.6693 247.204C89.6146 248.51 89.5598 249.456 89.4973 250.043C89.4269 250.7 89.3409 251.146 89.2314 251.38C89.1219 251.615 88.9264 251.771 88.6448 251.849C88.1834 251.99 87.9176 252.084 87.8472 252.115C87.5813 252.287 87.4405 252.53 87.4405 252.835C87.4405 253.406 87.8159 253.82 88.5745 254.07C89.4738 254.375 90.8502 254.532 92.7115 254.532C94.2286 254.532 95.347 254.399 96.0821 254.141C96.8172 253.883 97.1769 253.476 97.1769 252.936C97.1769 252.671 97.1066 252.452 96.958 252.303C96.8094 252.147 96.5357 251.99 96.129 251.81C95.7536 251.654 95.1984 251.427 95.0654 251.138C94.9325 250.848 94.5649 250.379 94.5649 249.73V243.435C94.5649 242.903 94.9246 242.52 95.042 242.285C95.1593 242.05 95.5112 241.933 95.7849 241.933C95.9882 241.933 96.2385 242.003 96.3793 242.144C96.52 242.285 96.7546 242.59 97.0049 243.051C97.2864 243.56 97.5992 243.927 97.8886 244.146C98.178 244.365 98.5377 244.475 98.9287 244.475C99.351 244.475 99.7108 244.365 100.016 244.138C100.415 243.841 100.61 243.364 100.61 242.707C100.61 241.753 100.329 240.83 99.7499 239.931C99.1712 239.032 98.5846 238.586 97.9824 238.586L97.9981 238.602Z" fill="#FFFEA6"/>
<path d="M109.235 241.8C110.033 241.8 110.791 242.058 111.518 242.566C111.808 242.778 112.058 243.012 112.261 243.27C112.465 243.528 112.723 243.951 113.051 244.545C113.278 244.967 113.505 245.257 113.747 245.421C113.99 245.585 114.295 245.671 114.678 245.671C115.1 245.671 115.476 245.562 115.812 245.335C116.438 244.913 116.743 244.256 116.743 243.349C116.743 242.058 116.383 240.979 115.663 240.111C115.374 239.751 115.03 239.571 114.639 239.571C114.522 239.571 114.412 239.579 114.31 239.603C114.013 239.673 113.794 239.704 113.661 239.704C113.474 239.704 113.137 239.595 112.66 239.368C111.644 238.891 110.588 238.648 109.493 238.648C108.328 238.648 107.186 238.891 106.083 239.368C104.636 239.994 103.463 240.909 102.564 242.097C101.532 243.466 101.016 244.983 101.016 246.649C101.016 248.08 101.43 249.448 102.251 250.762C103.088 252.107 104.23 253.108 105.677 253.765C106.92 254.328 108.171 254.61 109.423 254.61C110.674 254.61 111.777 254.344 112.887 253.812C113.356 253.585 113.739 253.452 114.021 253.398C114.514 253.304 114.842 253.187 114.999 253.061C115.366 252.756 115.679 252.334 115.945 251.795C116.211 251.255 116.336 250.77 116.336 250.332C116.336 249.988 116.242 249.691 116.054 249.448C115.867 249.206 115.64 249.081 115.382 249.081C115.202 249.081 114.967 249.214 114.686 249.488C114.357 249.808 113.896 250.074 113.294 250.277C112.699 250.481 112.097 250.582 111.487 250.582C109.837 250.582 108.57 249.871 107.686 248.432C107.037 247.36 106.709 246.18 106.709 244.889C106.709 243.951 106.936 243.208 107.389 242.645C107.843 242.089 108.453 241.808 109.227 241.808L109.235 241.8Z" fill="#FFFEA6"/>
<path d="M133.923 242.363C133.978 242.027 134.048 241.792 134.134 241.675C134.22 241.558 134.416 241.425 134.705 241.284C135.166 241.057 135.401 240.721 135.401 240.275C135.401 239.743 135.072 239.352 134.416 239.102C133.759 238.852 132.742 238.727 131.366 238.727C130.192 238.727 129.207 238.82 128.433 239.008C128.058 239.094 127.753 239.266 127.526 239.516C127.291 239.767 127.174 240.048 127.174 240.353C127.174 240.572 127.229 240.744 127.33 240.877C127.432 241.01 127.651 241.167 127.979 241.354C128.237 241.495 128.417 241.761 128.511 242.152C128.605 242.543 128.644 243.231 128.644 244.217C128.644 244.545 128.55 244.756 128.363 244.834C128.175 244.92 127.698 244.959 126.924 244.959C126.079 244.959 125.539 244.959 125.313 244.936C125.086 244.92 124.914 244.873 124.804 244.803C124.609 244.686 124.515 244.357 124.515 243.833C124.515 242.942 124.554 242.347 124.632 242.058C124.71 241.769 124.898 241.526 125.187 241.346C125.524 241.143 125.75 240.963 125.876 240.799C126.001 240.635 126.055 240.424 126.055 240.158C126.055 239.188 124.89 238.711 122.552 238.711C121.653 238.711 120.777 238.797 119.924 238.969C118.454 239.258 117.719 239.782 117.719 240.541C117.719 240.854 117.883 241.088 118.212 241.253C118.704 241.503 119.009 241.73 119.127 241.933C119.244 242.136 119.299 242.566 119.291 243.208C119.291 243.466 119.306 244.49 119.338 246.289C119.338 246.649 119.346 246.961 119.346 247.22C119.346 248.635 119.291 249.785 119.174 250.661C119.127 251.052 119.064 251.325 118.978 251.49C118.892 251.654 118.743 251.787 118.532 251.896C118.126 252.107 117.867 252.279 117.742 252.412C117.625 252.545 117.562 252.741 117.562 252.983C117.562 253.226 117.656 253.46 117.852 253.664C118.04 253.867 118.305 254.031 118.642 254.141C119.424 254.399 120.425 254.524 121.653 254.524C122.998 254.524 124.038 254.383 124.765 254.109C125.492 253.836 125.852 253.429 125.852 252.905C125.852 252.491 125.696 252.193 125.383 252.013C125.078 251.826 124.882 251.669 124.796 251.552C124.554 251.177 124.437 250.567 124.437 249.706C124.437 249.182 124.46 248.737 124.507 248.377C124.546 248.088 124.64 247.908 124.789 247.845C125.156 247.697 126.009 247.618 127.354 247.618C127.94 247.618 128.3 247.673 128.441 247.79C128.581 247.9 128.652 248.197 128.652 248.666C128.652 249.581 128.581 250.356 128.449 250.981C128.37 251.302 128.3 251.529 128.222 251.646C128.144 251.763 127.995 251.888 127.776 252.006C127.33 252.248 127.111 252.577 127.111 253.007C127.111 253.507 127.401 253.883 127.979 254.117C128.613 254.383 129.598 254.508 130.935 254.508C132.453 254.508 133.555 254.375 134.236 254.117C134.916 253.859 135.252 253.445 135.252 252.874C135.252 252.553 135.112 252.311 134.822 252.154C134.423 251.927 134.189 251.779 134.111 251.708C134.032 251.63 133.97 251.482 133.907 251.263C133.798 250.848 133.735 249.886 133.735 248.361C133.735 247.493 133.759 246.32 133.806 244.842C133.852 243.364 133.884 242.535 133.915 242.347L133.923 242.363Z" fill="#FFFEA6"/>
<path d="M150.382 248.972C150.116 248.972 149.889 249.05 149.725 249.198C149.553 249.347 149.365 249.644 149.154 250.074C148.794 250.833 148.333 251.357 147.762 251.646C147.191 251.935 146.346 252.076 145.22 252.076C144.493 252.076 143.977 252.029 143.664 251.943C143.351 251.857 143.171 251.701 143.109 251.474C143.054 251.294 143.007 250.927 142.96 250.364C142.913 249.808 142.89 249.347 142.89 248.995C142.89 248.416 142.952 248.025 143.077 247.806C143.203 247.587 143.429 247.486 143.766 247.486C144.642 247.486 145.134 247.908 145.252 248.753C145.306 249.167 145.377 249.433 145.478 249.566C145.572 249.699 145.752 249.761 146.01 249.761C146.425 249.761 146.73 249.558 146.933 249.144C147.3 248.385 147.48 247.415 147.48 246.234C147.48 245.632 147.426 245.061 147.316 244.506C147.207 243.951 147.074 243.568 146.917 243.356C146.698 243.067 146.44 242.919 146.127 242.919C145.916 242.919 145.736 242.989 145.58 243.122C145.431 243.239 145.33 243.38 145.267 243.544C145.212 243.708 145.158 244.006 145.103 244.436C145.064 244.772 144.978 245.007 144.837 245.14C144.696 245.272 144.469 245.335 144.149 245.335C143.515 245.335 143.117 245.28 142.968 245.171C142.819 245.061 142.741 244.78 142.741 244.334C142.741 243.192 142.749 242.488 142.772 242.207C142.796 241.925 142.851 241.706 142.945 241.542C143.132 241.237 143.656 241.081 144.516 241.081C145.674 241.081 146.503 241.167 147.003 241.331C147.512 241.503 147.926 241.832 148.255 242.34C148.489 242.692 148.669 242.919 148.81 243.02C148.951 243.122 149.138 243.169 149.389 243.169C149.748 243.169 150.03 243.028 150.241 242.746C150.444 242.465 150.554 242.082 150.554 241.597C150.554 240.627 150.304 239.806 149.811 239.126C149.514 238.703 149.17 238.5 148.779 238.5C148.693 238.5 148.567 238.523 148.411 238.57C147.903 238.719 147.379 238.868 146.839 238.914C146.299 238.961 145.447 239.032 144.282 239.032H138.503C137.666 239.032 137.095 239.024 136.805 239.087C136.571 239.149 136.383 239.251 136.242 239.438C136.102 239.626 136.031 239.829 136.031 240.072C136.031 240.518 136.242 240.791 136.673 240.924C136.954 241.01 137.142 241.073 137.236 241.135C137.329 241.198 137.408 241.3 137.486 241.448C137.846 242.207 138.025 244.029 138.025 246.923C138.025 248.839 137.9 250.364 137.658 251.498C137.595 251.771 137.517 251.982 137.408 252.123C137.298 252.264 137.134 252.389 136.907 252.483C136.586 252.632 136.375 252.757 136.289 252.85C136.203 252.944 136.156 253.109 136.156 253.32C136.156 253.625 136.258 253.664 136.469 253.836C136.68 254.008 136.978 253.891 137.361 253.891H146.894C147.699 253.891 148.333 254.164 148.818 254.258C149.084 254.305 149.295 254.422 149.435 254.422C149.608 254.422 149.748 254.422 149.866 254.344C149.975 254.258 150.124 254.11 150.296 253.859C150.632 253.335 150.921 252.749 151.148 252.076C151.383 251.404 151.5 250.848 151.5 250.395C151.5 249.98 151.398 249.644 151.187 249.37C150.984 249.097 150.718 248.964 150.405 248.964L150.382 248.972Z" fill="#FFFEA6"/>
<path d="M169.393 238.922C168.955 238.789 168.173 238.719 167.047 238.719C166.171 238.719 165.553 238.758 165.201 238.828C164.341 239.008 163.911 239.415 163.911 240.04C163.911 240.298 163.973 240.502 164.09 240.666C164.208 240.83 164.419 240.979 164.708 241.12C165.068 241.292 165.303 241.55 165.42 241.894C165.537 242.238 165.592 242.879 165.592 243.826C165.592 244.654 165.396 245.077 165.005 245.077C164.771 245.077 164.395 244.85 163.871 244.389L158.272 239.485C157.897 239.157 157.576 238.946 157.302 238.852C157.029 238.758 156.591 238.711 155.996 238.711C154.948 238.711 154.213 238.742 153.791 238.797C152.555 238.985 151.938 239.438 151.938 240.158C151.938 240.385 152 240.572 152.133 240.729C152.266 240.885 152.501 241.049 152.837 241.213C153.126 241.354 153.337 241.503 153.462 241.659C153.588 241.816 153.697 242.058 153.775 242.379C154.002 243.262 154.112 244.67 154.112 246.602C154.112 248.416 154.049 249.808 153.924 250.77C153.846 251.302 153.635 251.677 153.283 251.881C152.915 252.1 152.68 252.272 152.571 252.397C152.469 252.522 152.415 252.717 152.415 252.968C152.415 253.452 152.696 253.828 153.251 254.094C153.807 254.36 154.596 254.493 155.605 254.493C157.85 254.493 158.968 253.969 158.968 252.928C158.968 252.53 158.718 252.209 158.217 251.959C157.858 251.779 157.623 251.497 157.506 251.114C157.388 250.731 157.334 250.019 157.334 248.979C157.334 247.712 157.56 247.079 158.022 247.079C158.327 247.079 158.718 247.29 159.179 247.704L165.842 253.671C166.233 254.023 166.515 254.25 166.679 254.344C166.843 254.438 167.047 254.493 167.281 254.493C167.813 254.493 168.181 254.133 168.384 253.406C168.548 252.819 168.376 251.873 168.368 250.551C168.36 249.574 168.102 248.807 168.102 248.244V244.576C168.102 243.2 168.47 242.261 168.673 241.769C168.736 241.62 168.931 241.503 169.017 241.432C169.096 241.354 169.314 241.268 169.541 241.174C170.104 240.924 170.417 240.557 170.417 240.072C170.417 239.485 170.104 239.086 169.416 238.883L169.393 238.922Z" fill="#FFFEA6"/>
<defs>
<linearGradient id="paint0_linear_2_1781" x1="118.884" y1="76.9054" x2="118.884" y2="41.8152" gradientUnits="userSpaceOnUse">
<stop offset="0.61" stop-color="#FFDBBA"/>
<stop offset="0.7" stop-color="#FEEAD3"/>
<stop offset="0.8" stop-color="#FEF5E5"/>
<stop offset="0.9" stop-color="#FEFCF1"/>
<stop offset="1" stop-color="#FEFFF5"/>
</linearGradient>
<linearGradient id="paint1_linear_2_1781" x1="117.511" y1="92.8712" x2="117.511" y2="81.7818" gradientUnits="userSpaceOnUse">
<stop stop-color="#F6A1A7"/>
<stop offset="0.2" stop-color="#F6A1A7"/>
<stop offset="0.66" stop-color="#CE5B5E"/>
<stop offset="0.81" stop-color="#CE5B5E"/>
<stop offset="0.82" stop-color="#CE5B5E"/>
<stop offset="0.84" stop-color="#CE5B5E"/>
<stop offset="0.89" stop-color="#CE5B5E"/>
<stop offset="0.98" stop-color="#CE5B5E"/>
</linearGradient>
<linearGradient id="paint2_linear_2_1781" x1="68.6798" y1="61.7302" x2="165.653" y2="125.052" gradientUnits="userSpaceOnUse">
<stop stop-color="#FEFFF5"/>
<stop offset="0.1" stop-color="#FEFCF1"/>
<stop offset="0.2" stop-color="#FEF5E5"/>
<stop offset="0.3" stop-color="#FEEAD3"/>
<stop offset="0.39" stop-color="#FFDBBA"/>
</linearGradient>
<linearGradient id="paint3_linear_2_1781" x1="58.4546" y1="77.375" x2="155.436" y2="140.697" gradientUnits="userSpaceOnUse">
<stop offset="0.61" stop-color="#FFDBBA"/>
<stop offset="0.7" stop-color="#FEEAD3"/>
<stop offset="0.8" stop-color="#FEF5E5"/>
<stop offset="0.9" stop-color="#FEFCF1"/>
<stop offset="1" stop-color="#FEFFF5"/>
</linearGradient>
</defs>
</svg>
